<?xml version="1.0" encoding="utf-8" standalone="no"?>
<!DOCTYPE svg PUBLIC "-//W3C//DTD SVG 1.1//EN"
  "http://www.w3.org/Graphics/SVG/1.1/DTD/svg11.dtd">
<svg xmlns:xlink="http://www.w3.org/1999/xlink" width="864pt" height="388.8pt" viewBox="0 0 864 388.8" xmlns="http://www.w3.org/2000/svg" version="1.1">
 <metadata>
  <rdf:RDF xmlns:dc="http://purl.org/dc/elements/1.1/" xmlns:cc="http://creativecommons.org/ns#" xmlns:rdf="http://www.w3.org/1999/02/22-rdf-syntax-ns#">
   <cc:Work>
    <dc:type rdf:resource="http://purl.org/dc/dcmitype/StillImage"/>
    <dc:date>2026-07-13T18:18:40.483535</dc:date>
    <dc:format>image/svg+xml</dc:format>
    <dc:creator>
     <cc:Agent>
      <dc:title>Matplotlib v3.11.0, https://matplotlib.org/</dc:title>
     </cc:Agent>
    </dc:creator>
   </cc:Work>
  </rdf:RDF>
 </metadata>
 <defs>
  <style type="text/css">*{stroke-linejoin: round; stroke-linecap: butt}</style>
 </defs>
 <g id="figure_1">
  <g id="patch_1">
   <path d="M 0 388.8 
L 864 388.8 
L 864 0 
L 0 0 
z
" style="fill: #f4f2ed"/>
  </g>
  <g id="axes_1">
   <g id="patch_2">
    <path d="M 33.84 330.48 
L 172.08 330.48 
Q 183.6 330.48 183.6 318.96 
L 183.6 120.24 
Q 183.6 108.72 172.08 108.72 
L 33.84 108.72 
Q 22.32 108.72 22.32 120.24 
L 22.32 318.96 
Q 22.32 330.48 33.84 330.48 
z
" clip-path="url(#p20859c90cd)" style="fill: #ffffff; stroke: #d8dad3; stroke-width: 1.2; stroke-linejoin: miter"/>
   </g>
   <g id="patch_3">
    <path d="M 200.52 330.48 
L 338.76 330.48 
Q 350.28 330.48 350.28 318.96 
L 350.28 120.24 
Q 350.28 108.72 338.76 108.72 
L 200.52 108.72 
Q 189 108.72 189 120.24 
L 189 318.96 
Q 189 330.48 200.52 330.48 
z
" clip-path="url(#p20859c90cd)" style="fill: #ffffff; stroke: #d8dad3; stroke-width: 1.2; stroke-linejoin: miter"/>
   </g>
   <g id="patch_4">
    <path d="M 367.2 330.48 
L 505.44 330.48 
Q 516.96 330.48 516.96 318.96 
L 516.96 120.24 
Q 516.96 108.72 505.44 108.72 
L 367.2 108.72 
Q 355.68 108.72 355.68 120.24 
L 355.68 318.96 
Q 355.68 330.48 367.2 330.48 
z
" clip-path="url(#p20859c90cd)" style="fill: #ffffff; stroke: #d8dad3; stroke-width: 1.2; stroke-linejoin: miter"/>
   </g>
   <g id="patch_5">
    <path d="M 533.88 330.48 
L 672.12 330.48 
Q 683.64 330.48 683.64 318.96 
L 683.64 120.24 
Q 683.64 108.72 672.12 108.72 
L 533.88 108.72 
Q 522.36 108.72 522.36 120.24 
L 522.36 318.96 
Q 522.36 330.48 533.88 330.48 
z
" clip-path="url(#p20859c90cd)" style="fill: #ffffff; stroke: #d8dad3; stroke-width: 1.2; stroke-linejoin: miter"/>
   </g>
   <g id="patch_6">
    <path d="M 700.56 330.48 
L 838.8 330.48 
Q 850.32 330.48 850.32 318.96 
L 850.32 120.24 
Q 850.32 108.72 838.8 108.72 
L 700.56 108.72 
Q 689.04 108.72 689.04 120.24 
L 689.04 318.96 
Q 689.04 330.48 700.56 330.48 
z
" clip-path="url(#p20859c90cd)" style="fill: #ffffff; stroke: #d8dad3; stroke-width: 1.2; stroke-linejoin: miter"/>
   </g>
   <g id="text_1">
    <text style="font-weight: 600; font-size: 17px; font-family: 'IBM Plex Mono'; text-anchor: start; fill: #0e1116" x="28.8" y="37.16" transform="rotate(-0 28.8 37.16)">Gubernaut Cognitive Layer — what the sealed record shows</text>
   </g>
   <g id="text_2">
    <text style="font-size: 10px; font-family: 'IBM Plex Sans'; text-anchor: start; fill: #4a5260" x="28.8" y="69.04" transform="rotate(-0 28.8 69.04)">Triangulated head-to-head: each model is both generator (cook) and judge; the deterministic governor is toggled on vs off.</text>
   </g>
   <g id="text_3">
    <text style="font-weight: 600; font-size: 21px; font-family: 'IBM Plex Mono'; text-anchor: middle; fill: #0072b2" x="102.96" y="167.88" transform="rotate(-0 102.96 167.88)">15/16</text>
   </g>
   <g id="text_4">
    <text style="font-size: 10px; font-family: 'IBM Plex Sans'; text-anchor: middle; fill: #0e1116" x="102.96" y="227.44" transform="rotate(-0 102.96 227.44)">cells favor regulated</text>
   </g>
   <g id="text_5">
    <text style="font-size: 8.2px; font-family: 'IBM Plex Mono'; text-anchor: middle; fill: #4a5260" x="102.96" y="268.597344" transform="rotate(-0 102.96 268.597344)">4×4 matrix · sign test</text>
   </g>
   <g id="text_6">
    <text style="font-weight: 600; font-size: 21px; font-family: 'IBM Plex Mono'; text-anchor: middle; fill: #005a8e" x="269.64" y="167.88" transform="rotate(-0 269.64 167.88)">11/12</text>
   </g>
   <g id="text_7">
    <text style="font-size: 10px; font-family: 'IBM Plex Sans'; text-anchor: middle; fill: #0e1116" x="269.64" y="227.44" transform="rotate(-0 269.64 227.44)">off-diagonal cells</text>
   </g>
   <g id="text_8">
    <text style="font-size: 8.2px; font-family: 'IBM Plex Mono'; text-anchor: middle; fill: #4a5260" x="269.64" y="268.597344" transform="rotate(-0 269.64 268.597344)">cross-family, no self-judge</text>
   </g>
   <g id="text_9">
    <text style="font-weight: 600; font-size: 21px; font-family: 'IBM Plex Mono'; text-anchor: middle; fill: #117733" x="436.32" y="167.88" transform="rotate(-0 436.32 167.88)">4/4</text>
   </g>
   <g id="text_10">
    <text style="font-size: 10px; font-family: 'IBM Plex Sans'; text-anchor: middle; fill: #0e1116" x="436.32" y="227.44" transform="rotate(-0 436.32 227.44)">recovery replicates</text>
   </g>
   <g id="text_11">
    <text style="font-size: 8.2px; font-family: 'IBM Plex Mono'; text-anchor: middle; fill: #4a5260" x="436.32" y="268.614" transform="rotate(-0 436.32 268.614)">arousal resets by T8, every cook</text>
   </g>
   <g id="text_12">
    <text style="font-weight: 600; font-size: 21px; font-family: 'IBM Plex Mono'; text-anchor: middle; fill: #0e1116" x="603" y="167.88" transform="rotate(-0 603 167.88)">8/9</text>
   </g>
   <g id="text_13">
    <text style="font-size: 10px; font-family: 'IBM Plex Sans'; text-anchor: middle; fill: #0e1116" x="603" y="227.44" transform="rotate(-0 603 227.44)">frozen 3×3 · provenance</text>
   </g>
   <g id="text_14">
    <text style="font-size: 8.2px; font-family: 'IBM Plex Mono'; text-anchor: middle; fill: #4a5260" x="603" y="269.384672" transform="rotate(-0 603 269.384672)">sealed 2026-06-11 · unaltered</text>
   </g>
   <g id="text_15">
    <text style="font-weight: 600; font-size: 21px; font-family: 'IBM Plex Mono'; text-anchor: middle; fill: #d55e00" x="769.68" y="167.88" transform="rotate(-0 769.68 167.88)">1</text>
   </g>
   <g id="text_16">
    <text style="font-size: 10px; font-family: 'IBM Plex Sans'; text-anchor: middle; fill: #0e1116" x="769.68" y="227.44" transform="rotate(-0 769.68 227.44)">null cell, reported</text>
   </g>
   <g id="text_17">
    <text style="font-size: 8.2px; font-family: 'IBM Plex Mono'; fill: #4a5260" transform="translate(722.94 262.738828)">GPT × Gemini, -0.04</text>
    <text style="font-size: 8.2px; font-family: 'IBM Plex Mono'; fill: #4a5260" transform="translate(735.24 275.534672)">not a reversal</text>
   </g>
   <g id="text_18">
    <text style="font-size: 8.6px; font-family: 'IBM Plex Sans'; text-anchor: start; fill: #4a5260" x="28.8" y="362.408" transform="rotate(-0 28.8 362.408)">effect scales with the host's reactivity headroom · inter-judge agreement held when the xAI family was added · numbers reproducible from the sealed record · recorded-run evidence — no consciousness claim</text>
   </g>
  </g>
 </g>
 <defs>
  <clipPath id="p20859c90cd">
   <rect x="0" y="-0" width="864" height="388.8"/>
  </clipPath>
 </defs>
</svg>
