<?xml version="1.0" encoding="utf-8" standalone="no"?>
<!DOCTYPE svg PUBLIC "-//W3C//DTD SVG 1.1//EN"
  "http://www.w3.org/Graphics/SVG/1.1/DTD/svg11.dtd">
<svg xmlns:xlink="http://www.w3.org/1999/xlink" width="472.12pt" height="413.476pt" viewBox="0 0 472.12 413.476" xmlns="http://www.w3.org/2000/svg" version="1.1">
 <metadata>
  <rdf:RDF xmlns:dc="http://purl.org/dc/elements/1.1/" xmlns:cc="http://creativecommons.org/ns#" xmlns:rdf="http://www.w3.org/1999/02/22-rdf-syntax-ns#">
   <cc:Work>
    <dc:type rdf:resource="http://purl.org/dc/dcmitype/StillImage"/>
    <dc:date>2026-07-10T13:36:03.002001</dc:date>
    <dc:format>image/svg+xml</dc:format>
    <dc:creator>
     <cc:Agent>
      <dc:title>Matplotlib v3.11.0, https://matplotlib.org/</dc:title>
     </cc:Agent>
    </dc:creator>
   </cc:Work>
  </rdf:RDF>
 </metadata>
 <defs>
  <style type="text/css">*{stroke-linejoin: round; stroke-linecap: butt}</style>
 </defs>
 <g id="figure_1">
  <g id="patch_1">
   <path d="M 0 413.476 
L 472.12 413.476 
L 472.12 0 
L 0 0 
z
" style="fill: #ffffff"/>
  </g>
  <g id="axes_1">
   <g id="patch_2">
    <path d="M 95.2 376.776 
L 464.92 376.776 
L 464.92 7.2 
L 95.2 7.2 
z
" style="fill: #ffffff"/>
   </g>
   <g id="patch_3">
    <path d="M 97.374824 376.776 
L 162.619529 376.776 
L 162.619529 7.2 
L 97.374824 7.2 
z
" clip-path="url(#p19f8e37bcd)" style="fill: #d55e00; opacity: 0.05; stroke: #d55e00; stroke-linejoin: miter"/>
   </g>
   <g id="matplotlib.axis_1">
    <g id="xtick_1">
     <g id="line2d_1">
      <path d="M 108.248941 376.776 
L 108.248941 7.2 
" clip-path="url(#p19f8e37bcd)" style="fill: none; stroke: #d8dad3; stroke-width: 0.6; stroke-linecap: square"/>
     </g>
     <g id="line2d_2">
      <defs>
       <path id="m7b0fd39971" d="M 0 0 
L 0 3.5 
" style="stroke: #0e1116; stroke-width: 0.8"/>
      </defs>
      <g>
       <use xlink:href="#m7b0fd39971" x="108.248941" y="376.776" style="fill: #0e1116; stroke: #0e1116; stroke-width: 0.8"/>
      </g>
     </g>
     <g id="text_1">
      <text style="font-size: 9px; font-family: 'IBM Plex Mono'; text-anchor: middle; fill: #0e1116" x="108.248941" y="390.796" transform="rotate(-0 108.248941 390.796)">−0.5</text>
     </g>
    </g>
    <g id="xtick_2">
     <g id="line2d_3">
      <path d="M 162.619529 376.776 
L 162.619529 7.2 
" clip-path="url(#p19f8e37bcd)" style="fill: none; stroke: #d8dad3; stroke-width: 0.6; stroke-linecap: square"/>
     </g>
     <g id="line2d_4">
      <g>
       <use xlink:href="#m7b0fd39971" x="162.619529" y="376.776" style="fill: #0e1116; stroke: #0e1116; stroke-width: 0.8"/>
      </g>
     </g>
     <g id="text_2">
      <text style="font-size: 9px; font-family: 'IBM Plex Mono'; text-anchor: middle; fill: #0e1116" x="162.619529" y="390.796" transform="rotate(-0 162.619529 390.796)">0.0</text>
     </g>
    </g>
    <g id="xtick_3">
     <g id="line2d_5">
      <path d="M 216.990118 376.776 
L 216.990118 7.2 
" clip-path="url(#p19f8e37bcd)" style="fill: none; stroke: #d8dad3; stroke-width: 0.6; stroke-linecap: square"/>
     </g>
     <g id="line2d_6">
      <g>
       <use xlink:href="#m7b0fd39971" x="216.990118" y="376.776" style="fill: #0e1116; stroke: #0e1116; stroke-width: 0.8"/>
      </g>
     </g>
     <g id="text_3">
      <text style="font-size: 9px; font-family: 'IBM Plex Mono'; text-anchor: middle; fill: #0e1116" x="216.990118" y="390.796" transform="rotate(-0 216.990118 390.796)">0.5</text>
     </g>
    </g>
    <g id="xtick_4">
     <g id="line2d_7">
      <path d="M 271.360706 376.776 
L 271.360706 7.2 
" clip-path="url(#p19f8e37bcd)" style="fill: none; stroke: #d8dad3; stroke-width: 0.6; stroke-linecap: square"/>
     </g>
     <g id="line2d_8">
      <g>
       <use xlink:href="#m7b0fd39971" x="271.360706" y="376.776" style="fill: #0e1116; stroke: #0e1116; stroke-width: 0.8"/>
      </g>
     </g>
     <g id="text_4">
      <text style="font-size: 9px; font-family: 'IBM Plex Mono'; text-anchor: middle; fill: #0e1116" x="271.360706" y="390.796" transform="rotate(-0 271.360706 390.796)">1.0</text>
     </g>
    </g>
    <g id="xtick_5">
     <g id="line2d_9">
      <path d="M 325.731294 376.776 
L 325.731294 7.2 
" clip-path="url(#p19f8e37bcd)" style="fill: none; stroke: #d8dad3; stroke-width: 0.6; stroke-linecap: square"/>
     </g>
     <g id="line2d_10">
      <g>
       <use xlink:href="#m7b0fd39971" x="325.731294" y="376.776" style="fill: #0e1116; stroke: #0e1116; stroke-width: 0.8"/>
      </g>
     </g>
     <g id="text_5">
      <text style="font-size: 9px; font-family: 'IBM Plex Mono'; text-anchor: middle; fill: #0e1116" x="325.731294" y="390.796" transform="rotate(-0 325.731294 390.796)">1.5</text>
     </g>
    </g>
    <g id="xtick_6">
     <g id="line2d_11">
      <path d="M 380.101882 376.776 
L 380.101882 7.2 
" clip-path="url(#p19f8e37bcd)" style="fill: none; stroke: #d8dad3; stroke-width: 0.6; stroke-linecap: square"/>
     </g>
     <g id="line2d_12">
      <g>
       <use xlink:href="#m7b0fd39971" x="380.101882" y="376.776" style="fill: #0e1116; stroke: #0e1116; stroke-width: 0.8"/>
      </g>
     </g>
     <g id="text_6">
      <text style="font-size: 9px; font-family: 'IBM Plex Mono'; text-anchor: middle; fill: #0e1116" x="380.101882" y="390.796" transform="rotate(-0 380.101882 390.796)">2.0</text>
     </g>
    </g>
    <g id="xtick_7">
     <g id="line2d_13">
      <path d="M 434.472471 376.776 
L 434.472471 7.2 
" clip-path="url(#p19f8e37bcd)" style="fill: none; stroke: #d8dad3; stroke-width: 0.6; stroke-linecap: square"/>
     </g>
     <g id="line2d_14">
      <g>
       <use xlink:href="#m7b0fd39971" x="434.472471" y="376.776" style="fill: #0e1116; stroke: #0e1116; stroke-width: 0.8"/>
      </g>
     </g>
     <g id="text_7">
      <text style="font-size: 9px; font-family: 'IBM Plex Mono'; text-anchor: middle; fill: #0e1116" x="434.472471" y="390.796" transform="rotate(-0 434.472471 390.796)">2.5</text>
     </g>
    </g>
    <g id="text_8">
     <text style="font-size: 9.5px; font-family: 'IBM Plex Sans'; text-anchor: middle; fill: #0e1116" x="280.06" y="404.186" transform="rotate(-0 280.06 404.186)">Δ eval reactivity (baseline − regulated) · positive = regulated calmer</text>
    </g>
   </g>
   <g id="matplotlib.axis_2">
    <g id="ytick_1">
     <g id="line2d_15">
      <defs>
       <path id="m069c2c0285" d="M 0 0 
L -3.5 0 
" style="stroke: #0e1116; stroke-width: 0.8"/>
      </defs>
      <g>
       <use xlink:href="#m069c2c0285" x="95.2" y="22.974585" style="fill: #0e1116; stroke: #0e1116; stroke-width: 0.8"/>
      </g>
     </g>
     <g id="text_9">
      <text style="font-size: 9px; font-family: 'IBM Plex Mono'; text-anchor: end; fill: #0e1116" x="88.2" y="26.484585" transform="rotate(-0 88.2 26.484585)">Gemini × Opus</text>
     </g>
    </g>
    <g id="ytick_2">
     <g id="line2d_16">
      <g>
       <use xlink:href="#m069c2c0285" x="95.2" y="45.509707" style="fill: #0e1116; stroke: #0e1116; stroke-width: 0.8"/>
      </g>
     </g>
     <g id="text_10">
      <text style="font-size: 9px; font-family: 'IBM Plex Mono'; text-anchor: end; fill: #0e1116" x="88.2" y="49.019707" transform="rotate(-0 88.2 49.019707)">Gemini × Gemini</text>
     </g>
    </g>
    <g id="ytick_3">
     <g id="line2d_17">
      <g>
       <use xlink:href="#m069c2c0285" x="95.2" y="68.044829" style="fill: #0e1116; stroke: #0e1116; stroke-width: 0.8"/>
      </g>
     </g>
     <g id="text_11">
      <text style="font-size: 9px; font-family: 'IBM Plex Mono'; text-anchor: end; fill: #0e1116" x="88.2" y="71.554829" transform="rotate(-0 88.2 71.554829)">Gemini × GPT</text>
     </g>
    </g>
    <g id="ytick_4">
     <g id="line2d_18">
      <g>
       <use xlink:href="#m069c2c0285" x="95.2" y="90.579951" style="fill: #0e1116; stroke: #0e1116; stroke-width: 0.8"/>
      </g>
     </g>
     <g id="text_12">
      <text style="font-size: 9px; font-family: 'IBM Plex Mono'; text-anchor: end; fill: #0e1116" x="88.2" y="94.089951" transform="rotate(-0 88.2 94.089951)">Gemini × Grok</text>
     </g>
    </g>
    <g id="ytick_5">
     <g id="line2d_19">
      <g>
       <use xlink:href="#m069c2c0285" x="95.2" y="113.115073" style="fill: #0e1116; stroke: #0e1116; stroke-width: 0.8"/>
      </g>
     </g>
     <g id="text_13">
      <text style="font-size: 9px; font-family: 'IBM Plex Mono'; text-anchor: end; fill: #0e1116" x="88.2" y="116.625073" transform="rotate(-0 88.2 116.625073)">Opus × Opus</text>
     </g>
    </g>
    <g id="ytick_6">
     <g id="line2d_20">
      <g>
       <use xlink:href="#m069c2c0285" x="95.2" y="135.650195" style="fill: #0e1116; stroke: #0e1116; stroke-width: 0.8"/>
      </g>
     </g>
     <g id="text_14">
      <text style="font-size: 9px; font-family: 'IBM Plex Mono'; text-anchor: end; fill: #0e1116" x="88.2" y="139.160195" transform="rotate(-0 88.2 139.160195)">Opus × Gemini</text>
     </g>
    </g>
    <g id="ytick_7">
     <g id="line2d_21">
      <g>
       <use xlink:href="#m069c2c0285" x="95.2" y="158.185317" style="fill: #0e1116; stroke: #0e1116; stroke-width: 0.8"/>
      </g>
     </g>
     <g id="text_15">
      <text style="font-size: 9px; font-family: 'IBM Plex Mono'; text-anchor: end; fill: #0e1116" x="88.2" y="161.695317" transform="rotate(-0 88.2 161.695317)">Opus × GPT</text>
     </g>
    </g>
    <g id="ytick_8">
     <g id="line2d_22">
      <g>
       <use xlink:href="#m069c2c0285" x="95.2" y="180.720439" style="fill: #0e1116; stroke: #0e1116; stroke-width: 0.8"/>
      </g>
     </g>
     <g id="text_16">
      <text style="font-size: 9px; font-family: 'IBM Plex Mono'; text-anchor: end; fill: #0e1116" x="88.2" y="184.230439" transform="rotate(-0 88.2 184.230439)">Opus × Grok</text>
     </g>
    </g>
    <g id="ytick_9">
     <g id="line2d_23">
      <g>
       <use xlink:href="#m069c2c0285" x="95.2" y="203.255561" style="fill: #0e1116; stroke: #0e1116; stroke-width: 0.8"/>
      </g>
     </g>
     <g id="text_17">
      <text style="font-size: 9px; font-family: 'IBM Plex Mono'; text-anchor: end; fill: #0e1116" x="88.2" y="206.765561" transform="rotate(-0 88.2 206.765561)">Grok × Opus</text>
     </g>
    </g>
    <g id="ytick_10">
     <g id="line2d_24">
      <g>
       <use xlink:href="#m069c2c0285" x="95.2" y="225.790683" style="fill: #0e1116; stroke: #0e1116; stroke-width: 0.8"/>
      </g>
     </g>
     <g id="text_18">
      <text style="font-size: 9px; font-family: 'IBM Plex Mono'; text-anchor: end; fill: #0e1116" x="88.2" y="229.300683" transform="rotate(-0 88.2 229.300683)">Grok × Gemini</text>
     </g>
    </g>
    <g id="ytick_11">
     <g id="line2d_25">
      <g>
       <use xlink:href="#m069c2c0285" x="95.2" y="248.325805" style="fill: #0e1116; stroke: #0e1116; stroke-width: 0.8"/>
      </g>
     </g>
     <g id="text_19">
      <text style="font-size: 9px; font-family: 'IBM Plex Mono'; text-anchor: end; fill: #0e1116" x="88.2" y="251.835805" transform="rotate(-0 88.2 251.835805)">Grok × GPT</text>
     </g>
    </g>
    <g id="ytick_12">
     <g id="line2d_26">
      <g>
       <use xlink:href="#m069c2c0285" x="95.2" y="270.860927" style="fill: #0e1116; stroke: #0e1116; stroke-width: 0.8"/>
      </g>
     </g>
     <g id="text_20">
      <text style="font-size: 9px; font-family: 'IBM Plex Mono'; text-anchor: end; fill: #0e1116" x="88.2" y="274.370927" transform="rotate(-0 88.2 274.370927)">Grok × Grok</text>
     </g>
    </g>
    <g id="ytick_13">
     <g id="line2d_27">
      <g>
       <use xlink:href="#m069c2c0285" x="95.2" y="293.396049" style="fill: #0e1116; stroke: #0e1116; stroke-width: 0.8"/>
      </g>
     </g>
     <g id="text_21">
      <text style="font-size: 9px; font-family: 'IBM Plex Mono'; text-anchor: end; fill: #0e1116" x="88.2" y="296.906049" transform="rotate(-0 88.2 296.906049)">GPT × Opus</text>
     </g>
    </g>
    <g id="ytick_14">
     <g id="line2d_28">
      <g>
       <use xlink:href="#m069c2c0285" x="95.2" y="315.931171" style="fill: #0e1116; stroke: #0e1116; stroke-width: 0.8"/>
      </g>
     </g>
     <g id="text_22">
      <text style="font-size: 9px; font-family: 'IBM Plex Mono'; text-anchor: end; fill: #0e1116" x="88.2" y="319.441171" transform="rotate(-0 88.2 319.441171)">GPT × Gemini</text>
     </g>
    </g>
    <g id="ytick_15">
     <g id="line2d_29">
      <g>
       <use xlink:href="#m069c2c0285" x="95.2" y="338.466293" style="fill: #0e1116; stroke: #0e1116; stroke-width: 0.8"/>
      </g>
     </g>
     <g id="text_23">
      <text style="font-size: 9px; font-family: 'IBM Plex Mono'; text-anchor: end; fill: #0e1116" x="88.2" y="341.976293" transform="rotate(-0 88.2 341.976293)">GPT × GPT</text>
     </g>
    </g>
    <g id="ytick_16">
     <g id="line2d_30">
      <g>
       <use xlink:href="#m069c2c0285" x="95.2" y="361.001415" style="fill: #0e1116; stroke: #0e1116; stroke-width: 0.8"/>
      </g>
     </g>
     <g id="text_24">
      <text style="font-size: 9px; font-family: 'IBM Plex Mono'; text-anchor: end; fill: #0e1116" x="88.2" y="364.511415" transform="rotate(-0 88.2 364.511415)">GPT × Grok</text>
     </g>
    </g>
   </g>
   <g id="line2d_31">
    <path d="M 95.2 101.847512 
L 464.92 101.847512 
" clip-path="url(#p19f8e37bcd)" style="fill: none; stroke: #d8dad3; stroke-width: 0.8; stroke-linecap: square"/>
   </g>
   <g id="line2d_32">
    <path d="M 95.2 191.988 
L 464.92 191.988 
" clip-path="url(#p19f8e37bcd)" style="fill: none; stroke: #d8dad3; stroke-width: 0.8; stroke-linecap: square"/>
   </g>
   <g id="line2d_33">
    <path d="M 95.2 282.128488 
L 464.92 282.128488 
" clip-path="url(#p19f8e37bcd)" style="fill: none; stroke: #d8dad3; stroke-width: 0.8; stroke-linecap: square"/>
   </g>
   <g id="line2d_34">
    <path d="M 162.619529 376.776 
L 162.619529 7.2 
" clip-path="url(#p19f8e37bcd)" style="fill: none; stroke: #0e1116; stroke-width: 1.1; stroke-linecap: square"/>
   </g>
   <g id="patch_4">
    <path d="M 95.2 376.776 
L 464.92 376.776 
" style="fill: none; stroke: #d8dad3; stroke-width: 0.9; stroke-linejoin: miter; stroke-linecap: square"/>
   </g>
   <g id="line2d_35">
    <path d="M 308.132293 22.974585 
L 409.44493 22.974585 
" clip-path="url(#p19f8e37bcd)" style="fill: none; stroke: #0072b2; stroke-width: 2.2; stroke-linecap: round"/>
   </g>
   <g id="text_25">
    <text style="font-size: 8.8px; font-family: 'IBM Plex Mono'; text-anchor: start; fill: #0e1116" x="415.969401" y="25.438585" transform="rotate(-0 415.969401 25.438585)">d_z +1.99</text>
   </g>
   <g id="line2d_36">
    <path d="M 297.140185 45.509707 
L 399.123767 45.509707 
" clip-path="url(#p19f8e37bcd)" style="fill: none; stroke: #0072b2; stroke-width: 2.2; stroke-linecap: round"/>
   </g>
   <g id="text_26">
    <text style="font-size: 8.8px; font-family: 'IBM Plex Mono'; text-anchor: start; fill: #0e1116" x="405.648238" y="47.973707" transform="rotate(-0 405.648238 47.973707)">d_z +1.87</text>
   </g>
   <g id="line2d_37">
    <path d="M 255.025263 68.044829 
L 347.503796 68.044829 
" clip-path="url(#p19f8e37bcd)" style="fill: none; stroke: #0072b2; stroke-width: 2.2; stroke-linecap: round"/>
   </g>
   <g id="text_27">
    <text style="font-size: 8.8px; font-family: 'IBM Plex Mono'; text-anchor: start; fill: #0e1116" x="354.028267" y="70.508829" transform="rotate(-0 354.028267 70.508829)">d_z +1.54</text>
   </g>
   <g id="line2d_38">
    <path d="M 233.200374 90.579951 
L 335.183956 90.579951 
" clip-path="url(#p19f8e37bcd)" style="fill: none; stroke: #0072b2; stroke-width: 2.2; stroke-linecap: round"/>
   </g>
   <g id="text_28">
    <text style="font-size: 8.8px; font-family: 'IBM Plex Mono'; text-anchor: start; fill: #0e1116" x="341.708426" y="93.043951" transform="rotate(-0 341.708426 93.043951)">d_z +1.23</text>
   </g>
   <g id="line2d_39">
    <path d="M 193.906703 113.115073 
L 259.211979 113.115073 
" clip-path="url(#p19f8e37bcd)" style="fill: none; stroke: #7b2d8e; stroke-width: 2.2; stroke-linecap: round"/>
   </g>
   <g id="text_29">
    <text style="font-size: 8.8px; font-family: 'IBM Plex Mono'; text-anchor: start; fill: #0e1116" x="265.73645" y="115.579073" transform="rotate(-0 265.73645 115.579073)">d_z +1.01</text>
   </g>
   <g id="line2d_40">
    <path d="M 193.16569 135.650195 
L 272.784451 135.650195 
" clip-path="url(#p19f8e37bcd)" style="fill: none; stroke: #7b2d8e; stroke-width: 2.2; stroke-linecap: round"/>
   </g>
   <g id="text_30">
    <text style="font-size: 8.8px; font-family: 'IBM Plex Mono'; text-anchor: start; fill: #0e1116" x="279.308922" y="138.114195" transform="rotate(-0 279.308922 138.114195)">d_z +0.91</text>
   </g>
   <g id="line2d_41">
    <path d="M 200.260774 158.185317 
L 270.039014 158.185317 
" clip-path="url(#p19f8e37bcd)" style="fill: none; stroke: #7b2d8e; stroke-width: 2.2; stroke-linecap: round"/>
   </g>
   <g id="text_31">
    <text style="font-size: 8.8px; font-family: 'IBM Plex Mono'; text-anchor: start; fill: #0e1116" x="276.563485" y="160.649317" transform="rotate(-0 276.563485 160.649317)">d_z +1.07</text>
   </g>
   <g id="line2d_42">
    <path d="M 186.255162 180.720439 
L 258.381709 180.720439 
" clip-path="url(#p19f8e37bcd)" style="fill: none; stroke: #7b2d8e; stroke-width: 2.2; stroke-linecap: round"/>
   </g>
   <g id="text_32">
    <text style="font-size: 8.8px; font-family: 'IBM Plex Mono'; text-anchor: start; fill: #0e1116" x="264.906179" y="183.184439" transform="rotate(-0 264.906179 183.184439)">d_z +0.85</text>
   </g>
   <g id="line2d_43">
    <path d="M 187.155501 203.255561 
L 253.131722 203.255561 
" clip-path="url(#p19f8e37bcd)" style="fill: none; stroke: #117733; stroke-width: 2.2; stroke-linecap: round"/>
   </g>
   <g id="text_33">
    <text style="font-size: 8.8px; font-family: 'IBM Plex Mono'; text-anchor: start; fill: #0e1116" x="259.656193" y="205.719561" transform="rotate(-0 259.656193 205.719561)">d_z +0.90</text>
   </g>
   <g id="line2d_44">
    <path d="M 194.577648 225.790683 
L 258.541035 225.790683 
" clip-path="url(#p19f8e37bcd)" style="fill: none; stroke: #117733; stroke-width: 2.2; stroke-linecap: round"/>
   </g>
   <g id="text_34">
    <text style="font-size: 8.8px; font-family: 'IBM Plex Mono'; text-anchor: start; fill: #0e1116" x="265.065505" y="228.254683" transform="rotate(-0 265.065505 228.254683)">d_z +1.03</text>
   </g>
   <g id="line2d_45">
    <path d="M 191.404817 248.325805 
L 248.882406 248.325805 
" clip-path="url(#p19f8e37bcd)" style="fill: none; stroke: #117733; stroke-width: 2.2; stroke-linecap: round"/>
   </g>
   <g id="text_35">
    <text style="font-size: 8.8px; font-family: 'IBM Plex Mono'; text-anchor: start; fill: #0e1116" x="255.406877" y="250.789805" transform="rotate(-0 255.406877 250.789805)">d_z +1.03</text>
   </g>
   <g id="line2d_46">
    <path d="M 169.834553 270.860927 
L 206.512859 270.860927 
" clip-path="url(#p19f8e37bcd)" style="fill: none; stroke: #117733; stroke-width: 2.2; stroke-linecap: round"/>
   </g>
   <g id="text_36">
    <text style="font-size: 8.8px; font-family: 'IBM Plex Mono'; text-anchor: start; fill: #0e1116" x="213.037329" y="273.324927" transform="rotate(-0 213.037329 273.324927)">d_z +0.72</text>
   </g>
   <g id="line2d_47">
    <path d="M 162.971527 293.396049 
L 200.544426 293.396049 
" clip-path="url(#p19f8e37bcd)" style="fill: none; stroke: #4a5260; stroke-width: 2.2; stroke-linecap: round"/>
   </g>
   <g id="text_37">
    <text style="font-size: 8.8px; font-family: 'IBM Plex Mono'; text-anchor: start; fill: #0e1116" x="207.068896" y="295.860049" transform="rotate(-0 207.068896 295.860049)">d_z +0.52</text>
   </g>
   <g id="line2d_48">
    <path d="M 134.727826 315.931171 
L 182.029421 315.931171 
" clip-path="url(#p19f8e37bcd)" style="fill: none; stroke: #4a5260; stroke-opacity: 0.45; stroke-width: 2.2; stroke-linecap: round"/>
   </g>
   <g id="text_38">
    <text style="font-size: 8.8px; font-family: 'IBM Plex Mono'; text-anchor: start; fill: #4a5260" x="188.553892" y="318.395171" transform="rotate(-0 188.553892 318.395171)">d_z -0.09  n.s.</text>
   </g>
   <g id="text_39">
    <text style="font-weight: 600; font-size: 8.8px; font-family: 'IBM Plex Mono'; text-anchor: end; fill: #0e1116" x="128.203355" y="318.395171" transform="rotate(-0 128.203355 318.395171)">null</text>
   </g>
   <g id="line2d_49">
    <path d="M 150.055843 338.466293 
L 213.46011 338.466293 
" clip-path="url(#p19f8e37bcd)" style="fill: none; stroke: #4a5260; stroke-opacity: 0.45; stroke-width: 2.2; stroke-linecap: round"/>
   </g>
   <g id="text_40">
    <text style="font-size: 8.8px; font-family: 'IBM Plex Mono'; text-anchor: start; fill: #4a5260" x="219.98458" y="340.930293" transform="rotate(-0 219.98458 340.930293)">d_z +0.31  n.s.</text>
   </g>
   <g id="line2d_50">
    <path d="M 153.041749 361.001415 
L 189.160934 361.001415 
" clip-path="url(#p19f8e37bcd)" style="fill: none; stroke: #4a5260; stroke-opacity: 0.45; stroke-width: 2.2; stroke-linecap: round"/>
   </g>
   <g id="text_41">
    <text style="font-size: 8.8px; font-family: 'IBM Plex Mono'; text-anchor: start; fill: #4a5260" x="195.685404" y="363.465415" transform="rotate(-0 195.685404 363.465415)">d_z +0.24  n.s.</text>
   </g>
   <g id="line2d_51">
    <path d="M 358.788612 22.974585 
" clip-path="url(#p19f8e37bcd)" style="fill: none; stroke: #0072b2; stroke-width: 1.5; stroke-linecap: square"/>
    <defs>
     <path id="m25feb22620" d="M 0 3.75 
C 0.994512 3.75 1.948425 3.354876 2.65165 2.65165 
C 3.354876 1.948425 3.75 0.994512 3.75 0 
C 3.75 -0.994512 3.354876 -1.948425 2.65165 -2.65165 
C 1.948425 -3.354876 0.994512 -3.75 0 -3.75 
C -0.994512 -3.75 -1.948425 -3.354876 -2.65165 -2.65165 
C -3.354876 -1.948425 -3.75 -0.994512 -3.75 0 
C -3.75 0.994512 -3.354876 1.948425 -2.65165 2.65165 
C -1.948425 3.354876 -0.994512 3.75 0 3.75 
z
" style="stroke: #0072b2; stroke-width: 1.7"/>
    </defs>
    <g clip-path="url(#p19f8e37bcd)">
     <use xlink:href="#m25feb22620" x="358.788612" y="22.974585" style="fill: #0072b2; stroke: #0072b2; stroke-width: 1.7"/>
    </g>
   </g>
   <g id="line2d_52">
    <path d="M 348.131976 45.509707 
" clip-path="url(#p19f8e37bcd)" style="fill: none; stroke: #0072b2; stroke-width: 1.5; stroke-linecap: square"/>
    <g clip-path="url(#p19f8e37bcd)">
     <use xlink:href="#m25feb22620" x="348.131976" y="45.509707" style="fill: #0072b2; stroke: #0072b2; stroke-width: 1.7"/>
    </g>
   </g>
   <g id="line2d_53">
    <path d="M 301.264529 68.044829 
" clip-path="url(#p19f8e37bcd)" style="fill: none; stroke: #0072b2; stroke-width: 1.5; stroke-linecap: square"/>
    <g clip-path="url(#p19f8e37bcd)">
     <use xlink:href="#m25feb22620" x="301.264529" y="68.044829" style="fill: #0072b2; stroke: #0072b2; stroke-width: 1.7"/>
    </g>
   </g>
   <g id="line2d_54">
    <path d="M 284.192165 90.579951 
" clip-path="url(#p19f8e37bcd)" style="fill: none; stroke: #0072b2; stroke-width: 1.5; stroke-linecap: square"/>
    <g clip-path="url(#p19f8e37bcd)">
     <use xlink:href="#m25feb22620" x="284.192165" y="90.579951" style="fill: #0072b2; stroke: #0072b2; stroke-width: 1.7"/>
    </g>
   </g>
   <g id="line2d_55">
    <path d="M 226.559341 113.115073 
" clip-path="url(#p19f8e37bcd)" style="fill: none; stroke: #7b2d8e; stroke-width: 1.5; stroke-linecap: square"/>
    <defs>
     <path id="md03ccdb54c" d="M 0 3.75 
C 0.994512 3.75 1.948425 3.354876 2.65165 2.65165 
C 3.354876 1.948425 3.75 0.994512 3.75 0 
C 3.75 -0.994512 3.354876 -1.948425 2.65165 -2.65165 
C 1.948425 -3.354876 0.994512 -3.75 0 -3.75 
C -0.994512 -3.75 -1.948425 -3.354876 -2.65165 -2.65165 
C -3.354876 -1.948425 -3.75 -0.994512 -3.75 0 
C -3.75 0.994512 -3.354876 1.948425 -2.65165 2.65165 
C -1.948425 3.354876 -0.994512 3.75 0 3.75 
z
" style="stroke: #7b2d8e; stroke-width: 1.7"/>
    </defs>
    <g clip-path="url(#p19f8e37bcd)">
     <use xlink:href="#md03ccdb54c" x="226.559341" y="113.115073" style="fill: #7b2d8e; stroke: #7b2d8e; stroke-width: 1.7"/>
    </g>
   </g>
   <g id="line2d_56">
    <path d="M 232.975071 135.650195 
" clip-path="url(#p19f8e37bcd)" style="fill: none; stroke: #7b2d8e; stroke-width: 1.5; stroke-linecap: square"/>
    <g clip-path="url(#p19f8e37bcd)">
     <use xlink:href="#md03ccdb54c" x="232.975071" y="135.650195" style="fill: #7b2d8e; stroke: #7b2d8e; stroke-width: 1.7"/>
    </g>
   </g>
   <g id="line2d_57">
    <path d="M 235.149894 158.185317 
" clip-path="url(#p19f8e37bcd)" style="fill: none; stroke: #7b2d8e; stroke-width: 1.5; stroke-linecap: square"/>
    <g clip-path="url(#p19f8e37bcd)">
     <use xlink:href="#md03ccdb54c" x="235.149894" y="158.185317" style="fill: #7b2d8e; stroke: #7b2d8e; stroke-width: 1.7"/>
    </g>
   </g>
   <g id="line2d_58">
    <path d="M 222.318435 180.720439 
" clip-path="url(#p19f8e37bcd)" style="fill: none; stroke: #7b2d8e; stroke-width: 1.5; stroke-linecap: square"/>
    <g clip-path="url(#p19f8e37bcd)">
     <use xlink:href="#md03ccdb54c" x="222.318435" y="180.720439" style="fill: #7b2d8e; stroke: #7b2d8e; stroke-width: 1.7"/>
    </g>
   </g>
   <g id="line2d_59">
    <path d="M 220.143612 203.255561 
" clip-path="url(#p19f8e37bcd)" style="fill: none; stroke: #117733; stroke-width: 1.5; stroke-linecap: square"/>
    <defs>
     <path id="mca60e0c4a2" d="M 0 3.75 
C 0.994512 3.75 1.948425 3.354876 2.65165 2.65165 
C 3.354876 1.948425 3.75 0.994512 3.75 0 
C 3.75 -0.994512 3.354876 -1.948425 2.65165 -2.65165 
C 1.948425 -3.354876 0.994512 -3.75 0 -3.75 
C -0.994512 -3.75 -1.948425 -3.354876 -2.65165 -2.65165 
C -3.354876 -1.948425 -3.75 -0.994512 -3.75 0 
C -3.75 0.994512 -3.354876 1.948425 -2.65165 2.65165 
C -1.948425 3.354876 -0.994512 3.75 0 3.75 
z
" style="stroke: #117733; stroke-width: 1.7"/>
    </defs>
    <g clip-path="url(#p19f8e37bcd)">
     <use xlink:href="#mca60e0c4a2" x="220.143612" y="203.255561" style="fill: #117733; stroke: #117733; stroke-width: 1.7"/>
    </g>
   </g>
   <g id="line2d_60">
    <path d="M 226.559341 225.790683 
" clip-path="url(#p19f8e37bcd)" style="fill: none; stroke: #117733; stroke-width: 1.5; stroke-linecap: square"/>
    <g clip-path="url(#p19f8e37bcd)">
     <use xlink:href="#mca60e0c4a2" x="226.559341" y="225.790683" style="fill: #117733; stroke: #117733; stroke-width: 1.7"/>
    </g>
   </g>
   <g id="line2d_61">
    <path d="M 220.143612 248.325805 
" clip-path="url(#p19f8e37bcd)" style="fill: none; stroke: #117733; stroke-width: 1.5; stroke-linecap: square"/>
    <g clip-path="url(#p19f8e37bcd)">
     <use xlink:href="#mca60e0c4a2" x="220.143612" y="248.325805" style="fill: #117733; stroke: #117733; stroke-width: 1.7"/>
    </g>
   </g>
   <g id="line2d_62">
    <path d="M 188.173706 270.860927 
" clip-path="url(#p19f8e37bcd)" style="fill: none; stroke: #117733; stroke-width: 1.5; stroke-linecap: square"/>
    <g clip-path="url(#p19f8e37bcd)">
     <use xlink:href="#mca60e0c4a2" x="188.173706" y="270.860927" style="fill: #117733; stroke: #117733; stroke-width: 1.7"/>
    </g>
   </g>
   <g id="line2d_63">
    <path d="M 181.757976 293.396049 
" clip-path="url(#p19f8e37bcd)" style="fill: none; stroke: #4a5260; stroke-width: 1.5; stroke-linecap: square"/>
    <defs>
     <path id="md6d42742ec" d="M 0 3.75 
C 0.994512 3.75 1.948425 3.354876 2.65165 2.65165 
C 3.354876 1.948425 3.75 0.994512 3.75 0 
C 3.75 -0.994512 3.354876 -1.948425 2.65165 -2.65165 
C 1.948425 -3.354876 0.994512 -3.75 0 -3.75 
C -0.994512 -3.75 -1.948425 -3.354876 -2.65165 -2.65165 
C -3.354876 -1.948425 -3.75 -0.994512 -3.75 0 
C -3.75 0.994512 -3.354876 1.948425 -2.65165 2.65165 
C -1.948425 3.354876 -0.994512 3.75 0 3.75 
z
" style="stroke: #4a5260; stroke-width: 1.7"/>
    </defs>
    <g clip-path="url(#p19f8e37bcd)">
     <use xlink:href="#md6d42742ec" x="181.757976" y="293.396049" style="fill: #4a5260; stroke: #4a5260; stroke-width: 1.7"/>
    </g>
   </g>
   <g id="line2d_64">
    <path d="M 158.378624 315.931171 
" clip-path="url(#p19f8e37bcd)" style="fill: none; stroke: #ffffff; stroke-width: 1.5; stroke-linecap: square"/>
    <defs>
     <path id="mca819ee9b4" d="M 0 3.75 
C 0.994512 3.75 1.948425 3.354876 2.65165 2.65165 
C 3.354876 1.948425 3.75 0.994512 3.75 0 
C 3.75 -0.994512 3.354876 -1.948425 2.65165 -2.65165 
C 1.948425 -3.354876 0.994512 -3.75 0 -3.75 
C -0.994512 -3.75 -1.948425 -3.354876 -2.65165 -2.65165 
C -3.354876 -1.948425 -3.75 -0.994512 -3.75 0 
C -3.75 0.994512 -3.354876 1.948425 -2.65165 2.65165 
C -1.948425 3.354876 -0.994512 3.75 0 3.75 
z
" style="stroke: #4a5260; stroke-width: 1.7"/>
    </defs>
    <g clip-path="url(#p19f8e37bcd)">
     <use xlink:href="#mca819ee9b4" x="158.378624" y="315.931171" style="fill: #ffffff; stroke: #4a5260; stroke-width: 1.7"/>
    </g>
   </g>
   <g id="line2d_65">
    <path d="M 181.757976 338.466293 
" clip-path="url(#p19f8e37bcd)" style="fill: none; stroke: #ffffff; stroke-width: 1.5; stroke-linecap: square"/>
    <g clip-path="url(#p19f8e37bcd)">
     <use xlink:href="#mca819ee9b4" x="181.757976" y="338.466293" style="fill: #ffffff; stroke: #4a5260; stroke-width: 1.7"/>
    </g>
   </g>
   <g id="line2d_66">
    <path d="M 171.101341 361.001415 
" clip-path="url(#p19f8e37bcd)" style="fill: none; stroke: #ffffff; stroke-width: 1.5; stroke-linecap: square"/>
    <g clip-path="url(#p19f8e37bcd)">
     <use xlink:href="#mca819ee9b4" x="171.101341" y="361.001415" style="fill: #ffffff; stroke: #4a5260; stroke-width: 1.7"/>
    </g>
   </g>
   <g id="legend_1">
    <g id="patch_5">
     <path d="M 323.504 372.376 
L 458.76 372.376 
Q 460.52 372.376 460.52 370.616 
L 460.52 305.496 
Q 460.52 303.736 458.76 303.736 
L 323.504 303.736 
Q 321.744 303.736 321.744 305.496 
L 321.744 370.616 
Q 321.744 372.376 323.504 372.376 
z
" style="fill: #ffffff; opacity: 0.97; stroke: #d8dad3; stroke-linejoin: miter"/>
    </g>
    <g id="line2d_67">
     <path d="M 325.264 311.04 
L 334.064 311.04 
L 342.864 311.04 
" style="fill: none; stroke: #0072b2; stroke-width: 2.4; stroke-linecap: square"/>
     <defs>
      <path id="maa0ed3bbc2" d="M 0 3.25 
C 0.86191 3.25 1.688635 2.907559 2.298097 2.298097 
C 2.907559 1.688635 3.25 0.86191 3.25 0 
C 3.25 -0.86191 2.907559 -1.688635 2.298097 -2.298097 
C 1.688635 -2.907559 0.86191 -3.25 0 -3.25 
C -0.86191 -3.25 -1.688635 -2.907559 -2.298097 -2.298097 
C -2.907559 -1.688635 -3.25 -0.86191 -3.25 0 
C -3.25 0.86191 -2.907559 1.688635 -2.298097 2.298097 
C -1.688635 2.907559 -0.86191 3.25 0 3.25 
z
" style="stroke: #0072b2"/>
     </defs>
     <g>
      <use xlink:href="#maa0ed3bbc2" x="334.064" y="311.04" style="fill: #0072b2; stroke: #0072b2"/>
     </g>
    </g>
    <g id="text_42">
     <text style="font-size: 8.8px; font-family: 'IBM Plex Mono'; text-anchor: start; fill: #0e1116" x="349.904" y="314.12" transform="rotate(-0 349.904 314.12)">Gemini 3.5 Flash</text>
    </g>
    <g id="line2d_68">
     <path d="M 325.264 324.24 
L 334.064 324.24 
L 342.864 324.24 
" style="fill: none; stroke: #7b2d8e; stroke-width: 2.4; stroke-linecap: square"/>
     <defs>
      <path id="m166726d21c" d="M 0 3.25 
C 0.86191 3.25 1.688635 2.907559 2.298097 2.298097 
C 2.907559 1.688635 3.25 0.86191 3.25 0 
C 3.25 -0.86191 2.907559 -1.688635 2.298097 -2.298097 
C 1.688635 -2.907559 0.86191 -3.25 0 -3.25 
C -0.86191 -3.25 -1.688635 -2.907559 -2.298097 -2.298097 
C -2.907559 -1.688635 -3.25 -0.86191 -3.25 0 
C -3.25 0.86191 -2.907559 1.688635 -2.298097 2.298097 
C -1.688635 2.907559 -0.86191 3.25 0 3.25 
z
" style="stroke: #7b2d8e"/>
     </defs>
     <g>
      <use xlink:href="#m166726d21c" x="334.064" y="324.24" style="fill: #7b2d8e; stroke: #7b2d8e"/>
     </g>
    </g>
    <g id="text_43">
     <text style="font-size: 8.8px; font-family: 'IBM Plex Mono'; text-anchor: start; fill: #0e1116" x="349.904" y="327.32" transform="rotate(-0 349.904 327.32)">Opus 4.8</text>
    </g>
    <g id="line2d_69">
     <path d="M 325.264 337.44 
L 334.064 337.44 
L 342.864 337.44 
" style="fill: none; stroke: #117733; stroke-width: 2.4; stroke-linecap: square"/>
     <defs>
      <path id="mbe4b971c62" d="M 0 3.25 
C 0.86191 3.25 1.688635 2.907559 2.298097 2.298097 
C 2.907559 1.688635 3.25 0.86191 3.25 0 
C 3.25 -0.86191 2.907559 -1.688635 2.298097 -2.298097 
C 1.688635 -2.907559 0.86191 -3.25 0 -3.25 
C -0.86191 -3.25 -1.688635 -2.907559 -2.298097 -2.298097 
C -2.907559 -1.688635 -3.25 -0.86191 -3.25 0 
C -3.25 0.86191 -2.907559 1.688635 -2.298097 2.298097 
C -1.688635 2.907559 -0.86191 3.25 0 3.25 
z
" style="stroke: #117733"/>
     </defs>
     <g>
      <use xlink:href="#mbe4b971c62" x="334.064" y="337.44" style="fill: #117733; stroke: #117733"/>
     </g>
    </g>
    <g id="text_44">
     <text style="font-size: 8.8px; font-family: 'IBM Plex Mono'; text-anchor: start; fill: #0e1116" x="349.904" y="340.52" transform="rotate(-0 349.904 340.52)">Grok 4.3</text>
    </g>
    <g id="line2d_70">
     <path d="M 325.264 350.64 
L 334.064 350.64 
L 342.864 350.64 
" style="fill: none; stroke: #4a5260; stroke-width: 2.4; stroke-linecap: square"/>
     <defs>
      <path id="m7d1b2372c1" d="M 0 3.25 
C 0.86191 3.25 1.688635 2.907559 2.298097 2.298097 
C 2.907559 1.688635 3.25 0.86191 3.25 0 
C 3.25 -0.86191 2.907559 -1.688635 2.298097 -2.298097 
C 1.688635 -2.907559 0.86191 -3.25 0 -3.25 
C -0.86191 -3.25 -1.688635 -2.907559 -2.298097 -2.298097 
C -2.907559 -1.688635 -3.25 -0.86191 -3.25 0 
C -3.25 0.86191 -2.907559 1.688635 -2.298097 2.298097 
C -1.688635 2.907559 -0.86191 3.25 0 3.25 
z
" style="stroke: #4a5260"/>
     </defs>
     <g>
      <use xlink:href="#m7d1b2372c1" x="334.064" y="350.64" style="fill: #4a5260; stroke: #4a5260"/>
     </g>
    </g>
    <g id="text_45">
     <text style="font-size: 8.8px; font-family: 'IBM Plex Mono'; text-anchor: start; fill: #0e1116" x="349.904" y="353.72" transform="rotate(-0 349.904 353.72)">GPT-5.5</text>
    </g>
    <g id="line2d_71">
     <path d="M 325.264 363.84 
L 334.064 363.84 
L 342.864 363.84 
" style="fill: none; stroke: #4a5260; stroke-opacity: 0.6; stroke-width: 2.2; stroke-linecap: square"/>
     <defs>
      <path id="m8eedec29af" d="M 0 3.25 
C 0.86191 3.25 1.688635 2.907559 2.298097 2.298097 
C 2.907559 1.688635 3.25 0.86191 3.25 0 
C 3.25 -0.86191 2.907559 -1.688635 2.298097 -2.298097 
C 1.688635 -2.907559 0.86191 -3.25 0 -3.25 
C -0.86191 -3.25 -1.688635 -2.907559 -2.298097 -2.298097 
C -2.907559 -1.688635 -3.25 -0.86191 -3.25 0 
C -3.25 0.86191 -2.907559 1.688635 -2.298097 2.298097 
C -1.688635 2.907559 -0.86191 3.25 0 3.25 
z
" style="stroke: #4a5260; stroke-opacity: 0.6"/>
     </defs>
     <g>
      <use xlink:href="#m8eedec29af" x="334.064" y="363.84" style="fill: #ffffff; fill-opacity: 0.6; stroke: #4a5260; stroke-opacity: 0.6"/>
     </g>
    </g>
    <g id="text_46">
     <text style="font-size: 8.8px; font-family: 'IBM Plex Sans'; text-anchor: start; fill: #0e1116" x="349.904" y="366.92" transform="rotate(-0 349.904 366.92)">open = sub-threshold (n.s.)</text>
    </g>
   </g>
  </g>
 </g>
 <defs>
  <clipPath id="p19f8e37bcd">
   <rect x="95.2" y="7.2" width="369.72" height="369.576"/>
  </clipPath>
 </defs>
</svg>
