<?xml version="1.0" encoding="utf-8" standalone="no"?>
<!DOCTYPE svg PUBLIC "-//W3C//DTD SVG 1.1//EN"
  "http://www.w3.org/Graphics/SVG/1.1/DTD/svg11.dtd">
<svg xmlns:xlink="http://www.w3.org/1999/xlink" width="470.5pt" height="274.148pt" viewBox="0 0 470.5 274.148" xmlns="http://www.w3.org/2000/svg" version="1.1">
 <metadata>
  <rdf:RDF xmlns:dc="http://purl.org/dc/elements/1.1/" xmlns:cc="http://creativecommons.org/ns#" xmlns:rdf="http://www.w3.org/1999/02/22-rdf-syntax-ns#">
   <cc:Work>
    <dc:type rdf:resource="http://purl.org/dc/dcmitype/StillImage"/>
    <dc:date>2026-07-10T13:36:02.475442</dc:date>
    <dc:format>image/svg+xml</dc:format>
    <dc:creator>
     <cc:Agent>
      <dc:title>Matplotlib v3.11.0, https://matplotlib.org/</dc:title>
     </cc:Agent>
    </dc:creator>
   </cc:Work>
  </rdf:RDF>
 </metadata>
 <defs>
  <style type="text/css">*{stroke-linejoin: round; stroke-linecap: butt}</style>
 </defs>
 <g id="figure_1">
  <g id="patch_1">
   <path d="M 0 274.148 
L 470.5 274.148 
L 470.5 0 
L 0 0 
z
" style="fill: #ffffff"/>
  </g>
  <g id="axes_1">
   <g id="patch_2">
    <path d="M 45.34 236.008 
L 245.59 236.008 
L 245.59 65.512 
L 45.34 65.512 
z
" style="fill: #ffffff"/>
   </g>
   <g id="patch_3">
    <path d="M 105.010455 236.008 
L 125.237727 236.008 
L 125.237727 65.512 
L 105.010455 65.512 
z
" clip-path="url(#p0e6668368e)" style="fill: #fbe0e0"/>
   </g>
   <g id="patch_4">
    <path d="M 125.237727 236.008 
L 145.465 236.008 
L 145.465 65.512 
L 125.237727 65.512 
z
" clip-path="url(#p0e6668368e)" style="fill: #fbe0e0"/>
   </g>
   <g id="patch_5">
    <path d="M 145.465 236.008 
L 165.692273 236.008 
L 165.692273 65.512 
L 145.465 65.512 
z
" clip-path="url(#p0e6668368e)" style="fill: #fbe0e0"/>
   </g>
   <g id="patch_6">
    <path d="M 165.692273 236.008 
L 185.919545 236.008 
L 185.919545 65.512 
L 165.692273 65.512 
z
" clip-path="url(#p0e6668368e)" style="fill: #fbe0e0"/>
   </g>
   <g id="patch_7">
    <path d="M 185.919545 236.008 
L 206.146818 236.008 
L 206.146818 65.512 
L 185.919545 65.512 
z
" clip-path="url(#p0e6668368e)" style="fill: #dcefe0"/>
   </g>
   <g id="patch_8">
    <path d="M 206.146818 236.008 
L 226.374091 236.008 
L 226.374091 65.512 
L 206.146818 65.512 
z
" clip-path="url(#p0e6668368e)" style="fill: #dcefe0"/>
   </g>
   <g id="patch_9">
    <path d="M 226.374091 236.008 
L 246.601364 236.008 
L 246.601364 65.512 
L 226.374091 65.512 
z
" clip-path="url(#p0e6668368e)" style="fill: #dcefe0"/>
   </g>
   <g id="matplotlib.axis_1">
    <g id="xtick_1">
     <g id="line2d_1">
      <defs>
       <path id="m705a4bb698" d="M 0 0 
L 0 3.5 
" style="stroke: #0e1116; stroke-width: 0.8"/>
      </defs>
      <g>
       <use xlink:href="#m705a4bb698" x="54.442273" y="236.008" style="fill: #0e1116; stroke: #0e1116; stroke-width: 0.8"/>
      </g>
     </g>
     <g id="text_1">
      <text style="font-size: 9px; font-family: 'IBM Plex Mono'; text-anchor: middle; fill: #0e1116" x="54.442273" y="250.028" transform="rotate(-0 54.442273 250.028)">1</text>
     </g>
    </g>
    <g id="xtick_2">
     <g id="line2d_2">
      <g>
       <use xlink:href="#m705a4bb698" x="74.669545" y="236.008" style="fill: #0e1116; stroke: #0e1116; stroke-width: 0.8"/>
      </g>
     </g>
     <g id="text_2">
      <text style="font-size: 9px; font-family: 'IBM Plex Mono'; text-anchor: middle; fill: #0e1116" x="74.669545" y="250.028" transform="rotate(-0 74.669545 250.028)">2</text>
     </g>
    </g>
    <g id="xtick_3">
     <g id="line2d_3">
      <g>
       <use xlink:href="#m705a4bb698" x="94.896818" y="236.008" style="fill: #0e1116; stroke: #0e1116; stroke-width: 0.8"/>
      </g>
     </g>
     <g id="text_3">
      <text style="font-size: 9px; font-family: 'IBM Plex Mono'; text-anchor: middle; fill: #0e1116" x="94.896818" y="250.028" transform="rotate(-0 94.896818 250.028)">3</text>
     </g>
    </g>
    <g id="xtick_4">
     <g id="line2d_4">
      <g>
       <use xlink:href="#m705a4bb698" x="115.124091" y="236.008" style="fill: #0e1116; stroke: #0e1116; stroke-width: 0.8"/>
      </g>
     </g>
     <g id="text_4">
      <text style="font-size: 9px; font-family: 'IBM Plex Mono'; text-anchor: middle; fill: #0e1116" x="115.124091" y="250.028" transform="rotate(-0 115.124091 250.028)">4</text>
     </g>
    </g>
    <g id="xtick_5">
     <g id="line2d_5">
      <g>
       <use xlink:href="#m705a4bb698" x="135.351364" y="236.008" style="fill: #0e1116; stroke: #0e1116; stroke-width: 0.8"/>
      </g>
     </g>
     <g id="text_5">
      <text style="font-size: 9px; font-family: 'IBM Plex Mono'; text-anchor: middle; fill: #0e1116" x="135.351364" y="250.028" transform="rotate(-0 135.351364 250.028)">5</text>
     </g>
    </g>
    <g id="xtick_6">
     <g id="line2d_6">
      <g>
       <use xlink:href="#m705a4bb698" x="155.578636" y="236.008" style="fill: #0e1116; stroke: #0e1116; stroke-width: 0.8"/>
      </g>
     </g>
     <g id="text_6">
      <text style="font-size: 9px; font-family: 'IBM Plex Mono'; text-anchor: middle; fill: #0e1116" x="155.578636" y="250.028" transform="rotate(-0 155.578636 250.028)">6</text>
     </g>
    </g>
    <g id="xtick_7">
     <g id="line2d_7">
      <g>
       <use xlink:href="#m705a4bb698" x="175.805909" y="236.008" style="fill: #0e1116; stroke: #0e1116; stroke-width: 0.8"/>
      </g>
     </g>
     <g id="text_7">
      <text style="font-size: 9px; font-family: 'IBM Plex Mono'; text-anchor: middle; fill: #0e1116" x="175.805909" y="250.028" transform="rotate(-0 175.805909 250.028)">7</text>
     </g>
    </g>
    <g id="xtick_8">
     <g id="line2d_8">
      <g>
       <use xlink:href="#m705a4bb698" x="196.033182" y="236.008" style="fill: #0e1116; stroke: #0e1116; stroke-width: 0.8"/>
      </g>
     </g>
     <g id="text_8">
      <text style="font-size: 9px; font-family: 'IBM Plex Mono'; text-anchor: middle; fill: #0e1116" x="196.033182" y="250.028" transform="rotate(-0 196.033182 250.028)">8</text>
     </g>
    </g>
    <g id="xtick_9">
     <g id="line2d_9">
      <g>
       <use xlink:href="#m705a4bb698" x="216.260455" y="236.008" style="fill: #0e1116; stroke: #0e1116; stroke-width: 0.8"/>
      </g>
     </g>
     <g id="text_9">
      <text style="font-size: 9px; font-family: 'IBM Plex Mono'; text-anchor: middle; fill: #0e1116" x="216.260455" y="250.028" transform="rotate(-0 216.260455 250.028)">9</text>
     </g>
    </g>
    <g id="xtick_10">
     <g id="line2d_10">
      <g>
       <use xlink:href="#m705a4bb698" x="236.487727" y="236.008" style="fill: #0e1116; stroke: #0e1116; stroke-width: 0.8"/>
      </g>
     </g>
     <g id="text_10">
      <text style="font-size: 9px; font-family: 'IBM Plex Mono'; text-anchor: middle; fill: #0e1116" x="236.487727" y="250.028" transform="rotate(-0 236.487727 250.028)">10</text>
     </g>
    </g>
    <g id="text_11">
     <text style="font-size: 9.5px; font-family: 'IBM Plex Sans'; text-anchor: middle; fill: #0e1116" x="145.465" y="263.418" transform="rotate(-0 145.465 263.418)">turn</text>
    </g>
   </g>
   <g id="matplotlib.axis_2">
    <g id="ytick_1">
     <g id="line2d_11">
      <path d="M 45.34 236.008 
L 245.59 236.008 
" clip-path="url(#p0e6668368e)" style="fill: none; stroke: #d8dad3; stroke-width: 0.6; stroke-linecap: square"/>
     </g>
     <g id="line2d_12">
      <defs>
       <path id="m627554fdf5" d="M 0 0 
L -3.5 0 
" style="stroke: #0e1116; stroke-width: 0.8"/>
      </defs>
      <g>
       <use xlink:href="#m627554fdf5" x="45.34" y="236.008" style="fill: #0e1116; stroke: #0e1116; stroke-width: 0.8"/>
      </g>
     </g>
     <g id="text_12">
      <text style="font-size: 9px; font-family: 'IBM Plex Mono'; text-anchor: end; fill: #0e1116" x="38.34" y="239.518" transform="rotate(-0 38.34 239.518)">0.0</text>
     </g>
    </g>
    <g id="ytick_2">
     <g id="line2d_13">
      <path d="M 45.34 198.943652 
L 245.59 198.943652 
" clip-path="url(#p0e6668368e)" style="fill: none; stroke: #d8dad3; stroke-width: 0.6; stroke-linecap: square"/>
     </g>
     <g id="line2d_14">
      <g>
       <use xlink:href="#m627554fdf5" x="45.34" y="198.943652" style="fill: #0e1116; stroke: #0e1116; stroke-width: 0.8"/>
      </g>
     </g>
     <g id="text_13">
      <text style="font-size: 9px; font-family: 'IBM Plex Mono'; text-anchor: end; fill: #0e1116" x="38.34" y="202.453652" transform="rotate(-0 38.34 202.453652)">0.1</text>
     </g>
    </g>
    <g id="ytick_3">
     <g id="line2d_15">
      <path d="M 45.34 161.879304 
L 245.59 161.879304 
" clip-path="url(#p0e6668368e)" style="fill: none; stroke: #d8dad3; stroke-width: 0.6; stroke-linecap: square"/>
     </g>
     <g id="line2d_16">
      <g>
       <use xlink:href="#m627554fdf5" x="45.34" y="161.879304" style="fill: #0e1116; stroke: #0e1116; stroke-width: 0.8"/>
      </g>
     </g>
     <g id="text_14">
      <text style="font-size: 9px; font-family: 'IBM Plex Mono'; text-anchor: end; fill: #0e1116" x="38.34" y="165.389304" transform="rotate(-0 38.34 165.389304)">0.2</text>
     </g>
    </g>
    <g id="ytick_4">
     <g id="line2d_17">
      <path d="M 45.34 124.814957 
L 245.59 124.814957 
" clip-path="url(#p0e6668368e)" style="fill: none; stroke: #d8dad3; stroke-width: 0.6; stroke-linecap: square"/>
     </g>
     <g id="line2d_18">
      <g>
       <use xlink:href="#m627554fdf5" x="45.34" y="124.814957" style="fill: #0e1116; stroke: #0e1116; stroke-width: 0.8"/>
      </g>
     </g>
     <g id="text_15">
      <text style="font-size: 9px; font-family: 'IBM Plex Mono'; text-anchor: end; fill: #0e1116" x="38.34" y="128.324957" transform="rotate(-0 38.34 128.324957)">0.3</text>
     </g>
    </g>
    <g id="ytick_5">
     <g id="line2d_19">
      <path d="M 45.34 87.750609 
L 245.59 87.750609 
" clip-path="url(#p0e6668368e)" style="fill: none; stroke: #d8dad3; stroke-width: 0.6; stroke-linecap: square"/>
     </g>
     <g id="line2d_20">
      <g>
       <use xlink:href="#m627554fdf5" x="45.34" y="87.750609" style="fill: #0e1116; stroke: #0e1116; stroke-width: 0.8"/>
      </g>
     </g>
     <g id="text_16">
      <text style="font-size: 9px; font-family: 'IBM Plex Mono'; text-anchor: end; fill: #0e1116" x="38.34" y="91.260609" transform="rotate(-0 38.34 91.260609)">0.4</text>
     </g>
    </g>
    <g id="text_17">
     <text style="font-size: 9.5px; font-family: 'IBM Plex Sans'; text-anchor: middle; fill: #0e1116" x="16.05" y="150.76" transform="rotate(-90 16.05 150.76)">controller arousal (regulated arm)</text>
    </g>
   </g>
   <g id="patch_10">
    <path d="M 45.34 236.008 
L 45.34 65.512 
" style="fill: none; stroke: #d8dad3; stroke-width: 0.9; stroke-linejoin: miter; stroke-linecap: square"/>
   </g>
   <g id="patch_11">
    <path d="M 45.34 236.008 
L 245.59 236.008 
" style="fill: none; stroke: #d8dad3; stroke-width: 0.9; stroke-linejoin: miter; stroke-linecap: square"/>
   </g>
   <g id="text_18">
    <text style="font-weight: 600; font-size: 9.6px; font-family: 'IBM Plex Sans'; text-anchor: middle; fill: #0e1116" x="145.465" y="59.512" transform="rotate(-0 145.465 59.512)">S4 — provocation → genuine de-escalation</text>
   </g>
   <g id="line2d_21">
    <path d="M 54.442273 153.651019 
L 74.669545 174.295861 
L 94.896818 199.462553 
L 115.124091 180.374414 
L 135.351364 163.843715 
L 155.578636 130.003965 
L 175.805909 103.391763 
L 196.033182 127.557718 
L 216.260455 153.836341 
L 236.487727 183.376626 
" style="fill: none; stroke: #4a5260; stroke-width: 1.9; stroke-linecap: square"/>
    <defs>
     <path id="m2ef62e9689" d="M 0 2.1 
C 0.556927 2.1 1.091118 1.878731 1.484924 1.484924 
C 1.878731 1.091118 2.1 0.556927 2.1 0 
C 2.1 -0.556927 1.878731 -1.091118 1.484924 -1.484924 
C 1.091118 -1.878731 0.556927 -2.1 0 -2.1 
C -0.556927 -2.1 -1.091118 -1.878731 -1.484924 -1.484924 
C -1.878731 -1.091118 -2.1 -0.556927 -2.1 0 
C -2.1 0.556927 -1.878731 1.091118 -1.484924 1.484924 
C -1.091118 1.878731 -0.556927 2.1 0 2.1 
z
" style="stroke: #4a5260"/>
    </defs>
    <g>
     <use xlink:href="#m2ef62e9689" x="54.442273" y="153.651019" style="fill: #4a5260; stroke: #4a5260"/>
     <use xlink:href="#m2ef62e9689" x="74.669545" y="174.295861" style="fill: #4a5260; stroke: #4a5260"/>
     <use xlink:href="#m2ef62e9689" x="94.896818" y="199.462553" style="fill: #4a5260; stroke: #4a5260"/>
     <use xlink:href="#m2ef62e9689" x="115.124091" y="180.374414" style="fill: #4a5260; stroke: #4a5260"/>
     <use xlink:href="#m2ef62e9689" x="135.351364" y="163.843715" style="fill: #4a5260; stroke: #4a5260"/>
     <use xlink:href="#m2ef62e9689" x="155.578636" y="130.003965" style="fill: #4a5260; stroke: #4a5260"/>
     <use xlink:href="#m2ef62e9689" x="175.805909" y="103.391763" style="fill: #4a5260; stroke: #4a5260"/>
     <use xlink:href="#m2ef62e9689" x="196.033182" y="127.557718" style="fill: #4a5260; stroke: #4a5260"/>
     <use xlink:href="#m2ef62e9689" x="216.260455" y="153.836341" style="fill: #4a5260; stroke: #4a5260"/>
     <use xlink:href="#m2ef62e9689" x="236.487727" y="183.376626" style="fill: #4a5260; stroke: #4a5260"/>
    </g>
   </g>
   <g id="line2d_22">
    <path d="M 54.442273 153.651019 
L 74.669545 174.295861 
L 94.896818 199.462553 
L 115.124091 180.374414 
L 135.351364 159.951958 
L 155.578636 119.403562 
L 175.805909 90.901078 
L 196.033182 114.066296 
L 216.260455 138.936473 
L 236.487727 166.549412 
" style="fill: none; stroke: #7b2d8e; stroke-width: 1.9; stroke-linecap: square"/>
    <defs>
     <path id="m3bc16f1ab1" d="M 0 2.1 
C 0.556927 2.1 1.091118 1.878731 1.484924 1.484924 
C 1.878731 1.091118 2.1 0.556927 2.1 0 
C 2.1 -0.556927 1.878731 -1.091118 1.484924 -1.484924 
C 1.091118 -1.878731 0.556927 -2.1 0 -2.1 
C -0.556927 -2.1 -1.091118 -1.878731 -1.484924 -1.484924 
C -1.878731 -1.091118 -2.1 -0.556927 -2.1 0 
C -2.1 0.556927 -1.878731 1.091118 -1.484924 1.484924 
C -1.091118 1.878731 -0.556927 2.1 0 2.1 
z
" style="stroke: #7b2d8e"/>
    </defs>
    <g>
     <use xlink:href="#m3bc16f1ab1" x="54.442273" y="153.651019" style="fill: #7b2d8e; stroke: #7b2d8e"/>
     <use xlink:href="#m3bc16f1ab1" x="74.669545" y="174.295861" style="fill: #7b2d8e; stroke: #7b2d8e"/>
     <use xlink:href="#m3bc16f1ab1" x="94.896818" y="199.462553" style="fill: #7b2d8e; stroke: #7b2d8e"/>
     <use xlink:href="#m3bc16f1ab1" x="115.124091" y="180.374414" style="fill: #7b2d8e; stroke: #7b2d8e"/>
     <use xlink:href="#m3bc16f1ab1" x="135.351364" y="159.951958" style="fill: #7b2d8e; stroke: #7b2d8e"/>
     <use xlink:href="#m3bc16f1ab1" x="155.578636" y="119.403562" style="fill: #7b2d8e; stroke: #7b2d8e"/>
     <use xlink:href="#m3bc16f1ab1" x="175.805909" y="90.901078" style="fill: #7b2d8e; stroke: #7b2d8e"/>
     <use xlink:href="#m3bc16f1ab1" x="196.033182" y="114.066296" style="fill: #7b2d8e; stroke: #7b2d8e"/>
     <use xlink:href="#m3bc16f1ab1" x="216.260455" y="138.936473" style="fill: #7b2d8e; stroke: #7b2d8e"/>
     <use xlink:href="#m3bc16f1ab1" x="236.487727" y="166.549412" style="fill: #7b2d8e; stroke: #7b2d8e"/>
    </g>
   </g>
   <g id="line2d_23">
    <path d="M 54.442273 153.651019 
L 74.669545 174.295861 
L 94.896818 199.573746 
L 115.124091 164.65913 
L 135.351364 148.573203 
L 155.578636 109.544445 
L 175.805909 85.230233 
L 196.033182 107.987743 
L 216.260455 132.26489 
L 236.487727 159.099478 
" style="fill: none; stroke: #0072b2; stroke-width: 1.9; stroke-linecap: square"/>
    <defs>
     <path id="m1e8cdffdec" d="M 0 2.1 
C 0.556927 2.1 1.091118 1.878731 1.484924 1.484924 
C 1.878731 1.091118 2.1 0.556927 2.1 0 
C 2.1 -0.556927 1.878731 -1.091118 1.484924 -1.484924 
C 1.091118 -1.878731 0.556927 -2.1 0 -2.1 
C -0.556927 -2.1 -1.091118 -1.878731 -1.484924 -1.484924 
C -1.878731 -1.091118 -2.1 -0.556927 -2.1 0 
C -2.1 0.556927 -1.878731 1.091118 -1.484924 1.484924 
C -1.091118 1.878731 -0.556927 2.1 0 2.1 
z
" style="stroke: #0072b2"/>
    </defs>
    <g>
     <use xlink:href="#m1e8cdffdec" x="54.442273" y="153.651019" style="fill: #0072b2; stroke: #0072b2"/>
     <use xlink:href="#m1e8cdffdec" x="74.669545" y="174.295861" style="fill: #0072b2; stroke: #0072b2"/>
     <use xlink:href="#m1e8cdffdec" x="94.896818" y="199.573746" style="fill: #0072b2; stroke: #0072b2"/>
     <use xlink:href="#m1e8cdffdec" x="115.124091" y="164.65913" style="fill: #0072b2; stroke: #0072b2"/>
     <use xlink:href="#m1e8cdffdec" x="135.351364" y="148.573203" style="fill: #0072b2; stroke: #0072b2"/>
     <use xlink:href="#m1e8cdffdec" x="155.578636" y="109.544445" style="fill: #0072b2; stroke: #0072b2"/>
     <use xlink:href="#m1e8cdffdec" x="175.805909" y="85.230233" style="fill: #0072b2; stroke: #0072b2"/>
     <use xlink:href="#m1e8cdffdec" x="196.033182" y="107.987743" style="fill: #0072b2; stroke: #0072b2"/>
     <use xlink:href="#m1e8cdffdec" x="216.260455" y="132.26489" style="fill: #0072b2; stroke: #0072b2"/>
     <use xlink:href="#m1e8cdffdec" x="236.487727" y="159.099478" style="fill: #0072b2; stroke: #0072b2"/>
    </g>
   </g>
   <g id="line2d_24">
    <path d="M 54.442273 153.651019 
L 74.669545 174.295861 
L 94.896818 199.981454 
L 115.124091 198.23943 
L 135.351364 177.298073 
L 155.578636 142.198136 
L 175.805909 114.066296 
L 196.033182 139.158859 
L 216.260455 166.808863 
L 236.487727 198.276494 
" style="fill: none; stroke: #117733; stroke-width: 1.9; stroke-linecap: square"/>
    <defs>
     <path id="md9ec785a1c" d="M 0 2.1 
C 0.556927 2.1 1.091118 1.878731 1.484924 1.484924 
C 1.878731 1.091118 2.1 0.556927 2.1 0 
C 2.1 -0.556927 1.878731 -1.091118 1.484924 -1.484924 
C 1.091118 -1.878731 0.556927 -2.1 0 -2.1 
C -0.556927 -2.1 -1.091118 -1.878731 -1.484924 -1.484924 
C -1.878731 -1.091118 -2.1 -0.556927 -2.1 0 
C -2.1 0.556927 -1.878731 1.091118 -1.484924 1.484924 
C -1.091118 1.878731 -0.556927 2.1 0 2.1 
z
" style="stroke: #117733"/>
    </defs>
    <g>
     <use xlink:href="#md9ec785a1c" x="54.442273" y="153.651019" style="fill: #117733; stroke: #117733"/>
     <use xlink:href="#md9ec785a1c" x="74.669545" y="174.295861" style="fill: #117733; stroke: #117733"/>
     <use xlink:href="#md9ec785a1c" x="94.896818" y="199.981454" style="fill: #117733; stroke: #117733"/>
     <use xlink:href="#md9ec785a1c" x="115.124091" y="198.23943" style="fill: #117733; stroke: #117733"/>
     <use xlink:href="#md9ec785a1c" x="135.351364" y="177.298073" style="fill: #117733; stroke: #117733"/>
     <use xlink:href="#md9ec785a1c" x="155.578636" y="142.198136" style="fill: #117733; stroke: #117733"/>
     <use xlink:href="#md9ec785a1c" x="175.805909" y="114.066296" style="fill: #117733; stroke: #117733"/>
     <use xlink:href="#md9ec785a1c" x="196.033182" y="139.158859" style="fill: #117733; stroke: #117733"/>
     <use xlink:href="#md9ec785a1c" x="216.260455" y="166.808863" style="fill: #117733; stroke: #117733"/>
     <use xlink:href="#md9ec785a1c" x="236.487727" y="198.276494" style="fill: #117733; stroke: #117733"/>
    </g>
   </g>
   <g id="PathCollection_1">
    <defs>
     <path id="m42225ae730" d="M 0 -2.738613 
L -2.738613 2.738613 
L 2.738613 2.738613 
z
" style="stroke: #4a5260"/>
    </defs>
    <g>
     <use xlink:href="#m42225ae730" x="115.124091" y="175.185405" style="fill: #4a5260; stroke: #4a5260"/>
    </g>
   </g>
   <g id="PathCollection_2">
    <g>
     <use xlink:href="#m42225ae730" x="135.351364" y="158.654706" style="fill: #4a5260; stroke: #4a5260"/>
    </g>
   </g>
   <g id="PathCollection_3">
    <g>
     <use xlink:href="#m42225ae730" x="155.578636" y="124.814957" style="fill: #4a5260; stroke: #4a5260"/>
    </g>
   </g>
   <g id="PathCollection_4">
    <g>
     <use xlink:href="#m42225ae730" x="175.805909" y="98.202755" style="fill: #4a5260; stroke: #4a5260"/>
    </g>
   </g>
   <g id="PathCollection_5">
    <defs>
     <path id="m49f0671673" d="M 0 -2.738613 
L -2.738613 2.738613 
L 2.738613 2.738613 
z
" style="stroke: #7b2d8e"/>
    </defs>
    <g>
     <use xlink:href="#m49f0671673" x="115.124091" y="175.185405" style="fill: #7b2d8e; stroke: #7b2d8e"/>
    </g>
   </g>
   <g id="PathCollection_6">
    <g>
     <use xlink:href="#m49f0671673" x="135.351364" y="154.76295" style="fill: #7b2d8e; stroke: #7b2d8e"/>
    </g>
   </g>
   <g id="PathCollection_7">
    <g>
     <use xlink:href="#m49f0671673" x="155.578636" y="114.214553" style="fill: #7b2d8e; stroke: #7b2d8e"/>
    </g>
   </g>
   <g id="PathCollection_8">
    <g>
     <use xlink:href="#m49f0671673" x="175.805909" y="85.71207" style="fill: #7b2d8e; stroke: #7b2d8e"/>
    </g>
   </g>
   <g id="PathCollection_9">
    <defs>
     <path id="mb7a51db36a" d="M 0 -2.738613 
L -2.738613 2.738613 
L 2.738613 2.738613 
z
" style="stroke: #0072b2"/>
    </defs>
    <g>
     <use xlink:href="#mb7a51db36a" x="115.124091" y="159.470122" style="fill: #0072b2; stroke: #0072b2"/>
    </g>
   </g>
   <g id="PathCollection_10">
    <g>
     <use xlink:href="#mb7a51db36a" x="135.351364" y="143.384195" style="fill: #0072b2; stroke: #0072b2"/>
    </g>
   </g>
   <g id="PathCollection_11">
    <g>
     <use xlink:href="#mb7a51db36a" x="155.578636" y="104.355437" style="fill: #0072b2; stroke: #0072b2"/>
    </g>
   </g>
   <g id="PathCollection_12">
    <g>
     <use xlink:href="#mb7a51db36a" x="175.805909" y="80.041224" style="fill: #0072b2; stroke: #0072b2"/>
    </g>
   </g>
   <g id="PathCollection_13">
    <defs>
     <path id="madd0d13a0b" d="M 0 -2.738613 
L -2.738613 2.738613 
L 2.738613 2.738613 
z
" style="stroke: #117733"/>
    </defs>
    <g>
     <use xlink:href="#madd0d13a0b" x="115.124091" y="193.050421" style="fill: #117733; stroke: #117733"/>
    </g>
   </g>
   <g id="PathCollection_14">
    <g>
     <use xlink:href="#madd0d13a0b" x="135.351364" y="172.109064" style="fill: #117733; stroke: #117733"/>
    </g>
   </g>
   <g id="PathCollection_15">
    <g>
     <use xlink:href="#madd0d13a0b" x="155.578636" y="137.009127" style="fill: #117733; stroke: #117733"/>
    </g>
   </g>
   <g id="PathCollection_16">
    <g>
     <use xlink:href="#madd0d13a0b" x="175.805909" y="108.877287" style="fill: #117733; stroke: #117733"/>
    </g>
   </g>
  </g>
  <g id="axes_2">
   <g id="patch_12">
    <path d="M 261.61 236.008 
L 461.86 236.008 
L 461.86 65.512 
L 261.61 65.512 
z
" style="fill: #ffffff"/>
   </g>
   <g id="patch_13">
    <path d="M 321.280455 236.008 
L 341.507727 236.008 
L 341.507727 65.512 
L 321.280455 65.512 
z
" clip-path="url(#p225e934b52)" style="fill: #fbe0e0"/>
   </g>
   <g id="patch_14">
    <path d="M 341.507727 236.008 
L 361.735 236.008 
L 361.735 65.512 
L 341.507727 65.512 
z
" clip-path="url(#p225e934b52)" style="fill: #fbe0e0"/>
   </g>
   <g id="patch_15">
    <path d="M 361.735 236.008 
L 381.962273 236.008 
L 381.962273 65.512 
L 361.735 65.512 
z
" clip-path="url(#p225e934b52)" style="fill: #fbe0e0"/>
   </g>
   <g id="patch_16">
    <path d="M 381.962273 236.008 
L 402.189545 236.008 
L 402.189545 65.512 
L 381.962273 65.512 
z
" clip-path="url(#p225e934b52)" style="fill: #fbe0e0"/>
   </g>
   <g id="patch_17">
    <path d="M 402.189545 236.008 
L 422.416818 236.008 
L 422.416818 65.512 
L 402.189545 65.512 
z
" clip-path="url(#p225e934b52)" style="fill: #dcefe0"/>
   </g>
   <g id="patch_18">
    <path d="M 422.416818 236.008 
L 442.644091 236.008 
L 442.644091 65.512 
L 422.416818 65.512 
z
" clip-path="url(#p225e934b52)" style="fill: #dcefe0"/>
   </g>
   <g id="patch_19">
    <path d="M 442.644091 236.008 
L 462.871364 236.008 
L 462.871364 65.512 
L 442.644091 65.512 
z
" clip-path="url(#p225e934b52)" style="fill: #dcefe0"/>
   </g>
   <g id="matplotlib.axis_3">
    <g id="xtick_11">
     <g id="line2d_25">
      <g>
       <use xlink:href="#m705a4bb698" x="270.712273" y="236.008" style="fill: #0e1116; stroke: #0e1116; stroke-width: 0.8"/>
      </g>
     </g>
     <g id="text_19">
      <text style="font-size: 9px; font-family: 'IBM Plex Mono'; text-anchor: middle; fill: #0e1116" x="270.712273" y="250.028" transform="rotate(-0 270.712273 250.028)">1</text>
     </g>
    </g>
    <g id="xtick_12">
     <g id="line2d_26">
      <g>
       <use xlink:href="#m705a4bb698" x="290.939545" y="236.008" style="fill: #0e1116; stroke: #0e1116; stroke-width: 0.8"/>
      </g>
     </g>
     <g id="text_20">
      <text style="font-size: 9px; font-family: 'IBM Plex Mono'; text-anchor: middle; fill: #0e1116" x="290.939545" y="250.028" transform="rotate(-0 290.939545 250.028)">2</text>
     </g>
    </g>
    <g id="xtick_13">
     <g id="line2d_27">
      <g>
       <use xlink:href="#m705a4bb698" x="311.166818" y="236.008" style="fill: #0e1116; stroke: #0e1116; stroke-width: 0.8"/>
      </g>
     </g>
     <g id="text_21">
      <text style="font-size: 9px; font-family: 'IBM Plex Mono'; text-anchor: middle; fill: #0e1116" x="311.166818" y="250.028" transform="rotate(-0 311.166818 250.028)">3</text>
     </g>
    </g>
    <g id="xtick_14">
     <g id="line2d_28">
      <g>
       <use xlink:href="#m705a4bb698" x="331.394091" y="236.008" style="fill: #0e1116; stroke: #0e1116; stroke-width: 0.8"/>
      </g>
     </g>
     <g id="text_22">
      <text style="font-size: 9px; font-family: 'IBM Plex Mono'; text-anchor: middle; fill: #0e1116" x="331.394091" y="250.028" transform="rotate(-0 331.394091 250.028)">4</text>
     </g>
    </g>
    <g id="xtick_15">
     <g id="line2d_29">
      <g>
       <use xlink:href="#m705a4bb698" x="351.621364" y="236.008" style="fill: #0e1116; stroke: #0e1116; stroke-width: 0.8"/>
      </g>
     </g>
     <g id="text_23">
      <text style="font-size: 9px; font-family: 'IBM Plex Mono'; text-anchor: middle; fill: #0e1116" x="351.621364" y="250.028" transform="rotate(-0 351.621364 250.028)">5</text>
     </g>
    </g>
    <g id="xtick_16">
     <g id="line2d_30">
      <g>
       <use xlink:href="#m705a4bb698" x="371.848636" y="236.008" style="fill: #0e1116; stroke: #0e1116; stroke-width: 0.8"/>
      </g>
     </g>
     <g id="text_24">
      <text style="font-size: 9px; font-family: 'IBM Plex Mono'; text-anchor: middle; fill: #0e1116" x="371.848636" y="250.028" transform="rotate(-0 371.848636 250.028)">6</text>
     </g>
    </g>
    <g id="xtick_17">
     <g id="line2d_31">
      <g>
       <use xlink:href="#m705a4bb698" x="392.075909" y="236.008" style="fill: #0e1116; stroke: #0e1116; stroke-width: 0.8"/>
      </g>
     </g>
     <g id="text_25">
      <text style="font-size: 9px; font-family: 'IBM Plex Mono'; text-anchor: middle; fill: #0e1116" x="392.075909" y="250.028" transform="rotate(-0 392.075909 250.028)">7</text>
     </g>
    </g>
    <g id="xtick_18">
     <g id="line2d_32">
      <g>
       <use xlink:href="#m705a4bb698" x="412.303182" y="236.008" style="fill: #0e1116; stroke: #0e1116; stroke-width: 0.8"/>
      </g>
     </g>
     <g id="text_26">
      <text style="font-size: 9px; font-family: 'IBM Plex Mono'; text-anchor: middle; fill: #0e1116" x="412.303182" y="250.028" transform="rotate(-0 412.303182 250.028)">8</text>
     </g>
    </g>
    <g id="xtick_19">
     <g id="line2d_33">
      <g>
       <use xlink:href="#m705a4bb698" x="432.530455" y="236.008" style="fill: #0e1116; stroke: #0e1116; stroke-width: 0.8"/>
      </g>
     </g>
     <g id="text_27">
      <text style="font-size: 9px; font-family: 'IBM Plex Mono'; text-anchor: middle; fill: #0e1116" x="432.530455" y="250.028" transform="rotate(-0 432.530455 250.028)">9</text>
     </g>
    </g>
    <g id="xtick_20">
     <g id="line2d_34">
      <g>
       <use xlink:href="#m705a4bb698" x="452.757727" y="236.008" style="fill: #0e1116; stroke: #0e1116; stroke-width: 0.8"/>
      </g>
     </g>
     <g id="text_28">
      <text style="font-size: 9px; font-family: 'IBM Plex Mono'; text-anchor: middle; fill: #0e1116" x="452.757727" y="250.028" transform="rotate(-0 452.757727 250.028)">10</text>
     </g>
    </g>
    <g id="text_29">
     <text style="font-size: 9.5px; font-family: 'IBM Plex Sans'; text-anchor: middle; fill: #0e1116" x="361.735" y="263.418" transform="rotate(-0 361.735 263.418)">turn</text>
    </g>
   </g>
   <g id="matplotlib.axis_4">
    <g id="ytick_6">
     <g id="line2d_35">
      <path d="M 261.61 236.008 
L 461.86 236.008 
" clip-path="url(#p225e934b52)" style="fill: none; stroke: #d8dad3; stroke-width: 0.6; stroke-linecap: square"/>
     </g>
     <g id="line2d_36">
      <g>
       <use xlink:href="#m627554fdf5" x="261.61" y="236.008" style="fill: #0e1116; stroke: #0e1116; stroke-width: 0.8"/>
      </g>
     </g>
    </g>
    <g id="ytick_7">
     <g id="line2d_37">
      <path d="M 261.61 198.943652 
L 461.86 198.943652 
" clip-path="url(#p225e934b52)" style="fill: none; stroke: #d8dad3; stroke-width: 0.6; stroke-linecap: square"/>
     </g>
     <g id="line2d_38">
      <g>
       <use xlink:href="#m627554fdf5" x="261.61" y="198.943652" style="fill: #0e1116; stroke: #0e1116; stroke-width: 0.8"/>
      </g>
     </g>
    </g>
    <g id="ytick_8">
     <g id="line2d_39">
      <path d="M 261.61 161.879304 
L 461.86 161.879304 
" clip-path="url(#p225e934b52)" style="fill: none; stroke: #d8dad3; stroke-width: 0.6; stroke-linecap: square"/>
     </g>
     <g id="line2d_40">
      <g>
       <use xlink:href="#m627554fdf5" x="261.61" y="161.879304" style="fill: #0e1116; stroke: #0e1116; stroke-width: 0.8"/>
      </g>
     </g>
    </g>
    <g id="ytick_9">
     <g id="line2d_41">
      <path d="M 261.61 124.814957 
L 461.86 124.814957 
" clip-path="url(#p225e934b52)" style="fill: none; stroke: #d8dad3; stroke-width: 0.6; stroke-linecap: square"/>
     </g>
     <g id="line2d_42">
      <g>
       <use xlink:href="#m627554fdf5" x="261.61" y="124.814957" style="fill: #0e1116; stroke: #0e1116; stroke-width: 0.8"/>
      </g>
     </g>
    </g>
    <g id="ytick_10">
     <g id="line2d_43">
      <path d="M 261.61 87.750609 
L 461.86 87.750609 
" clip-path="url(#p225e934b52)" style="fill: none; stroke: #d8dad3; stroke-width: 0.6; stroke-linecap: square"/>
     </g>
     <g id="line2d_44">
      <g>
       <use xlink:href="#m627554fdf5" x="261.61" y="87.750609" style="fill: #0e1116; stroke: #0e1116; stroke-width: 0.8"/>
      </g>
     </g>
    </g>
   </g>
   <g id="patch_20">
    <path d="M 261.61 236.008 
L 261.61 65.512 
" style="fill: none; stroke: #d8dad3; stroke-width: 0.9; stroke-linejoin: miter; stroke-linecap: square"/>
   </g>
   <g id="patch_21">
    <path d="M 261.61 236.008 
L 461.86 236.008 
" style="fill: none; stroke: #d8dad3; stroke-width: 0.9; stroke-linejoin: miter; stroke-linecap: square"/>
   </g>
   <g id="text_30">
    <text style="font-weight: 600; font-size: 9.6px; font-family: 'IBM Plex Sans'; text-anchor: middle; fill: #0e1116" x="361.735" y="59.512" transform="rotate(-0 361.735 59.512)">S5 — held-out de-escalation battery</text>
   </g>
   <g id="line2d_45">
    <path d="M 270.712273 153.651019 
L 290.939545 174.295861 
L 311.166818 199.462553 
L 331.394091 193.384 
L 351.621364 172.553837 
L 371.848636 143.866031 
L 392.075909 112.250143 
L 412.303182 137.194449 
L 432.530455 164.585002 
L 452.757727 195.719054 
" style="fill: none; stroke: #4a5260; stroke-width: 1.9; stroke-linecap: square"/>
    <g>
     <use xlink:href="#m2ef62e9689" x="270.712273" y="153.651019" style="fill: #4a5260; stroke: #4a5260"/>
     <use xlink:href="#m2ef62e9689" x="290.939545" y="174.295861" style="fill: #4a5260; stroke: #4a5260"/>
     <use xlink:href="#m2ef62e9689" x="311.166818" y="199.462553" style="fill: #4a5260; stroke: #4a5260"/>
     <use xlink:href="#m2ef62e9689" x="331.394091" y="193.384" style="fill: #4a5260; stroke: #4a5260"/>
     <use xlink:href="#m2ef62e9689" x="351.621364" y="172.553837" style="fill: #4a5260; stroke: #4a5260"/>
     <use xlink:href="#m2ef62e9689" x="371.848636" y="143.866031" style="fill: #4a5260; stroke: #4a5260"/>
     <use xlink:href="#m2ef62e9689" x="392.075909" y="112.250143" style="fill: #4a5260; stroke: #4a5260"/>
     <use xlink:href="#m2ef62e9689" x="412.303182" y="137.194449" style="fill: #4a5260; stroke: #4a5260"/>
     <use xlink:href="#m2ef62e9689" x="432.530455" y="164.585002" style="fill: #4a5260; stroke: #4a5260"/>
     <use xlink:href="#m2ef62e9689" x="452.757727" y="195.719054" style="fill: #4a5260; stroke: #4a5260"/>
    </g>
   </g>
   <g id="line2d_46">
    <path d="M 270.712273 153.651019 
L 290.939545 174.295861 
L 311.166818 199.462553 
L 331.394091 180.374414 
L 351.621364 159.951958 
L 371.848636 119.403562 
L 392.075909 93.866226 
L 412.303182 117.25383 
L 432.530455 142.420522 
L 452.757727 170.478233 
" style="fill: none; stroke: #7b2d8e; stroke-width: 1.9; stroke-linecap: square"/>
    <g>
     <use xlink:href="#m3bc16f1ab1" x="270.712273" y="153.651019" style="fill: #7b2d8e; stroke: #7b2d8e"/>
     <use xlink:href="#m3bc16f1ab1" x="290.939545" y="174.295861" style="fill: #7b2d8e; stroke: #7b2d8e"/>
     <use xlink:href="#m3bc16f1ab1" x="311.166818" y="199.462553" style="fill: #7b2d8e; stroke: #7b2d8e"/>
     <use xlink:href="#m3bc16f1ab1" x="331.394091" y="180.374414" style="fill: #7b2d8e; stroke: #7b2d8e"/>
     <use xlink:href="#m3bc16f1ab1" x="351.621364" y="159.951958" style="fill: #7b2d8e; stroke: #7b2d8e"/>
     <use xlink:href="#m3bc16f1ab1" x="371.848636" y="119.403562" style="fill: #7b2d8e; stroke: #7b2d8e"/>
     <use xlink:href="#m3bc16f1ab1" x="392.075909" y="93.866226" style="fill: #7b2d8e; stroke: #7b2d8e"/>
     <use xlink:href="#m3bc16f1ab1" x="412.303182" y="117.25383" style="fill: #7b2d8e; stroke: #7b2d8e"/>
     <use xlink:href="#m3bc16f1ab1" x="432.530455" y="142.420522" style="fill: #7b2d8e; stroke: #7b2d8e"/>
     <use xlink:href="#m3bc16f1ab1" x="452.757727" y="170.478233" style="fill: #7b2d8e; stroke: #7b2d8e"/>
    </g>
   </g>
   <g id="line2d_47">
    <path d="M 270.712273 153.651019 
L 290.939545 174.295861 
L 311.166818 200.240904 
L 331.394091 176.705043 
L 351.621364 160.211409 
L 371.848636 130.522866 
L 392.075909 100.537809 
L 412.303182 124.444313 
L 432.530455 150.352292 
L 452.757727 179.447805 
" style="fill: none; stroke: #0072b2; stroke-width: 1.9; stroke-linecap: square"/>
    <g>
     <use xlink:href="#m1e8cdffdec" x="270.712273" y="153.651019" style="fill: #0072b2; stroke: #0072b2"/>
     <use xlink:href="#m1e8cdffdec" x="290.939545" y="174.295861" style="fill: #0072b2; stroke: #0072b2"/>
     <use xlink:href="#m1e8cdffdec" x="311.166818" y="200.240904" style="fill: #0072b2; stroke: #0072b2"/>
     <use xlink:href="#m1e8cdffdec" x="331.394091" y="176.705043" style="fill: #0072b2; stroke: #0072b2"/>
     <use xlink:href="#m1e8cdffdec" x="351.621364" y="160.211409" style="fill: #0072b2; stroke: #0072b2"/>
     <use xlink:href="#m1e8cdffdec" x="371.848636" y="130.522866" style="fill: #0072b2; stroke: #0072b2"/>
     <use xlink:href="#m1e8cdffdec" x="392.075909" y="100.537809" style="fill: #0072b2; stroke: #0072b2"/>
     <use xlink:href="#m1e8cdffdec" x="412.303182" y="124.444313" style="fill: #0072b2; stroke: #0072b2"/>
     <use xlink:href="#m1e8cdffdec" x="432.530455" y="150.352292" style="fill: #0072b2; stroke: #0072b2"/>
     <use xlink:href="#m1e8cdffdec" x="452.757727" y="179.447805" style="fill: #0072b2; stroke: #0072b2"/>
    </g>
   </g>
   <g id="line2d_48">
    <path d="M 270.712273 153.651019 
L 290.939545 174.295861 
L 311.166818 200.537419 
L 331.394091 180.967443 
L 351.621364 164.39968 
L 371.848636 134.30343 
L 392.075909 107.02407 
L 412.303182 131.486539 
L 432.530455 158.209934 
L 452.757727 188.380313 
" style="fill: none; stroke: #117733; stroke-width: 1.9; stroke-linecap: square"/>
    <g>
     <use xlink:href="#md9ec785a1c" x="270.712273" y="153.651019" style="fill: #117733; stroke: #117733"/>
     <use xlink:href="#md9ec785a1c" x="290.939545" y="174.295861" style="fill: #117733; stroke: #117733"/>
     <use xlink:href="#md9ec785a1c" x="311.166818" y="200.537419" style="fill: #117733; stroke: #117733"/>
     <use xlink:href="#md9ec785a1c" x="331.394091" y="180.967443" style="fill: #117733; stroke: #117733"/>
     <use xlink:href="#md9ec785a1c" x="351.621364" y="164.39968" style="fill: #117733; stroke: #117733"/>
     <use xlink:href="#md9ec785a1c" x="371.848636" y="134.30343" style="fill: #117733; stroke: #117733"/>
     <use xlink:href="#md9ec785a1c" x="392.075909" y="107.02407" style="fill: #117733; stroke: #117733"/>
     <use xlink:href="#md9ec785a1c" x="412.303182" y="131.486539" style="fill: #117733; stroke: #117733"/>
     <use xlink:href="#md9ec785a1c" x="432.530455" y="158.209934" style="fill: #117733; stroke: #117733"/>
     <use xlink:href="#md9ec785a1c" x="452.757727" y="188.380313" style="fill: #117733; stroke: #117733"/>
    </g>
   </g>
   <g id="PathCollection_17">
    <g>
     <use xlink:href="#m42225ae730" x="331.394091" y="188.194991" style="fill: #4a5260; stroke: #4a5260"/>
    </g>
   </g>
   <g id="PathCollection_18">
    <g>
     <use xlink:href="#m42225ae730" x="351.621364" y="167.364828" style="fill: #4a5260; stroke: #4a5260"/>
    </g>
   </g>
   <g id="PathCollection_19">
    <g>
     <use xlink:href="#m42225ae730" x="371.848636" y="138.677023" style="fill: #4a5260; stroke: #4a5260"/>
    </g>
   </g>
   <g id="PathCollection_20">
    <g>
     <use xlink:href="#m42225ae730" x="392.075909" y="107.061134" style="fill: #4a5260; stroke: #4a5260"/>
    </g>
   </g>
   <g id="PathCollection_21">
    <g>
     <use xlink:href="#m49f0671673" x="331.394091" y="175.185405" style="fill: #7b2d8e; stroke: #7b2d8e"/>
    </g>
   </g>
   <g id="PathCollection_22">
    <g>
     <use xlink:href="#m49f0671673" x="351.621364" y="154.76295" style="fill: #7b2d8e; stroke: #7b2d8e"/>
    </g>
   </g>
   <g id="PathCollection_23">
    <g>
     <use xlink:href="#m49f0671673" x="371.848636" y="114.214553" style="fill: #7b2d8e; stroke: #7b2d8e"/>
    </g>
   </g>
   <g id="PathCollection_24">
    <g>
     <use xlink:href="#m49f0671673" x="392.075909" y="88.677217" style="fill: #7b2d8e; stroke: #7b2d8e"/>
    </g>
   </g>
   <g id="PathCollection_25">
    <g>
     <use xlink:href="#mb7a51db36a" x="331.394091" y="171.516035" style="fill: #0072b2; stroke: #0072b2"/>
    </g>
   </g>
   <g id="PathCollection_26">
    <g>
     <use xlink:href="#mb7a51db36a" x="351.621364" y="155.0224" style="fill: #0072b2; stroke: #0072b2"/>
    </g>
   </g>
   <g id="PathCollection_27">
    <g>
     <use xlink:href="#mb7a51db36a" x="371.848636" y="125.333857" style="fill: #0072b2; stroke: #0072b2"/>
    </g>
   </g>
   <g id="PathCollection_28">
    <g>
     <use xlink:href="#mb7a51db36a" x="392.075909" y="95.3488" style="fill: #0072b2; stroke: #0072b2"/>
    </g>
   </g>
   <g id="PathCollection_29">
    <g>
     <use xlink:href="#madd0d13a0b" x="331.394091" y="175.778435" style="fill: #117733; stroke: #117733"/>
    </g>
   </g>
   <g id="PathCollection_30">
    <g>
     <use xlink:href="#madd0d13a0b" x="351.621364" y="159.210671" style="fill: #117733; stroke: #117733"/>
    </g>
   </g>
   <g id="PathCollection_31">
    <g>
     <use xlink:href="#madd0d13a0b" x="371.848636" y="129.114421" style="fill: #117733; stroke: #117733"/>
    </g>
   </g>
   <g id="PathCollection_32">
    <g>
     <use xlink:href="#madd0d13a0b" x="392.075909" y="101.835061" style="fill: #117733; stroke: #117733"/>
    </g>
   </g>
  </g>
  <g id="legend_1">
   <g id="line2d_49">
    <path d="M 19.520625 15.944 
L 26.120625 15.944 
L 32.720625 15.944 
" style="fill: none; stroke: #4a5260; stroke-width: 1.9; stroke-linecap: square"/>
    <g>
     <use xlink:href="#m2ef62e9689" x="26.120625" y="15.944" style="fill: #4a5260; stroke: #4a5260"/>
    </g>
   </g>
   <g id="text_31">
    <text style="font-size: 8.8px; font-family: 'IBM Plex Mono'; text-anchor: start; fill: #0e1116" x="37.560625" y="19.024" transform="rotate(-0 37.560625 19.024)">GPT-5.5</text>
   </g>
   <g id="line2d_50">
    <path d="M 19.520625 28.704 
L 26.120625 28.704 
L 32.720625 28.704 
" style="fill: none; stroke: #7b2d8e; stroke-width: 1.9; stroke-linecap: square"/>
    <g>
     <use xlink:href="#m3bc16f1ab1" x="26.120625" y="28.704" style="fill: #7b2d8e; stroke: #7b2d8e"/>
    </g>
   </g>
   <g id="text_32">
    <text style="font-size: 8.8px; font-family: 'IBM Plex Mono'; text-anchor: start; fill: #0e1116" x="37.560625" y="31.784" transform="rotate(-0 37.560625 31.784)">Opus 4.8</text>
   </g>
   <g id="line2d_51">
    <path d="M 92.120625 15.944 
L 98.720625 15.944 
L 105.320625 15.944 
" style="fill: none; stroke: #0072b2; stroke-width: 1.9; stroke-linecap: square"/>
    <g>
     <use xlink:href="#m1e8cdffdec" x="98.720625" y="15.944" style="fill: #0072b2; stroke: #0072b2"/>
    </g>
   </g>
   <g id="text_33">
    <text style="font-size: 8.8px; font-family: 'IBM Plex Mono'; text-anchor: start; fill: #0e1116" x="110.160625" y="19.024" transform="rotate(-0 110.160625 19.024)">Gemini 3.5 Flash</text>
   </g>
   <g id="line2d_52">
    <path d="M 92.120625 28.704 
L 98.720625 28.704 
L 105.320625 28.704 
" style="fill: none; stroke: #117733; stroke-width: 1.9; stroke-linecap: square"/>
    <g>
     <use xlink:href="#md9ec785a1c" x="98.720625" y="28.704" style="fill: #117733; stroke: #117733"/>
    </g>
   </g>
   <g id="text_34">
    <text style="font-size: 8.8px; font-family: 'IBM Plex Mono'; text-anchor: start; fill: #0e1116" x="110.160625" y="31.784" transform="rotate(-0 110.160625 31.784)">Grok 4.3</text>
   </g>
   <g id="patch_22">
    <path d="M 206.960625 19.024 
L 220.160625 19.024 
L 220.160625 12.864 
L 206.960625 12.864 
z
" style="fill: #fbe0e0; stroke: #fbe0e0; stroke-linejoin: miter"/>
   </g>
   <g id="text_35">
    <text style="font-size: 8.8px; font-family: 'IBM Plex Sans'; text-anchor: start; fill: #0e1116" x="225.000625" y="19.024" transform="rotate(-0 225.000625 19.024)">intense (T4–T7)</text>
   </g>
   <g id="patch_23">
    <path d="M 206.960625 31.784 
L 220.160625 31.784 
L 220.160625 25.624 
L 206.960625 25.624 
z
" style="fill: #dcefe0; stroke: #dcefe0; stroke-linejoin: miter"/>
   </g>
   <g id="text_36">
    <text style="font-size: 8.8px; font-family: 'IBM Plex Sans'; text-anchor: start; fill: #0e1116" x="225.000625" y="31.784" transform="rotate(-0 225.000625 31.784)">de-escalation (T8–T10)</text>
   </g>
   <g id="line2d_53">
    <defs>
     <path id="m3e029ad200" d="M 0 -3 
L -3 3 
L 3 3 
z
" style="stroke: #4a5260; stroke-linejoin: miter"/>
    </defs>
    <g>
     <use xlink:href="#m3e029ad200" x="336.88575" y="15.944" style="fill: #4a5260; stroke: #4a5260; stroke-linejoin: miter"/>
    </g>
   </g>
   <g id="text_37">
    <text style="font-size: 8.8px; font-family: 'IBM Plex Sans'; text-anchor: start; fill: #0e1116" x="348.32575" y="19.024" transform="rotate(-0 348.32575 19.024)">INHIBIT posture engaged</text>
   </g>
  </g>
 </g>
 <defs>
  <clipPath id="p0e6668368e">
   <rect x="45.34" y="65.512" width="200.25" height="170.496"/>
  </clipPath>
  <clipPath id="p225e934b52">
   <rect x="261.61" y="65.512" width="200.25" height="170.496"/>
  </clipPath>
 </defs>
</svg>
